<?xml version="1.0" encoding="utf-8"?>
<!-- Generator: Adobe Illustrator 16.0.4, SVG Export Plug-In . SVG Version: 6.00 Build 0)  -->
<!DOCTYPE svg PUBLIC "-//W3C//DTD SVG 1.0//EN" "http://www.w3.org/TR/2001/REC-SVG-20010904/DTD/svg10.dtd">
<svg version="1.0" id="Layer_1" xmlns="http://www.w3.org/2000/svg" xmlns:xlink="http://www.w3.org/1999/xlink" x="0px" y="0px"
	 width="600px" height="600px" viewBox="0 0 600 600" enable-background="new 0 0 600 600" xml:space="preserve">
<g>
	<path d="M409.706,321.562c0.39-0.39,0.747-0.78,1.068-1.165c0.177-0.209,0.34-0.43,0.51-0.649c0.084-0.113,0.157-0.21,0.243-0.323
		c2.373-3.188,3.787-7.133,3.793-11.424c-0.006-4.285-1.42-8.225-3.788-11.419c-0.102-0.141-0.209-0.294-0.321-0.429
		c-0.142-0.17-0.271-0.351-0.425-0.526c-0.333-0.407-0.69-0.813-1.096-1.221l-85.383-85.371c-7.501-7.501-19.666-7.501-27.179,0
		c-7.513,7.501-7.513,19.667,0,27.18l52.567,52.572L203.9,288.791c-10.622-0.006-19.22,8.604-19.22,19.215
		c0,10.611,8.598,19.209,19.22,19.214l145.795-0.005l-52.567,52.566c-7.507,7.513-7.507,19.684,0,27.195
		c7.506,7.501,19.672,7.501,27.179,0l85.377-85.369C409.685,321.59,409.7,321.584,409.706,321.562z"/>
	<path d="M107.8,308.006C107.8,414.145,193.855,500.2,300,500.2c106.146,0,192.194-86.056,192.2-192.2
		c0-106.145-86.055-192.2-192.2-192.2C193.855,115.806,107.8,201.855,107.8,308.006z M453.76,308.006
		c0,84.912-68.848,153.755-153.76,153.76c-84.913,0-153.76-68.854-153.76-153.76c0-84.918,68.848-153.76,153.76-153.76
		C384.912,154.24,453.76,223.087,453.76,308.006z"/>
</g>
</svg>
