<?xml version="1.0" encoding="utf-8"?>
<!-- Generator: Adobe Illustrator 16.0.0, SVG Export Plug-In . SVG Version: 6.00 Build 0)  -->
<!DOCTYPE svg PUBLIC "-//W3C//DTD SVG 1.1//EN" "http://www.w3.org/Graphics/SVG/1.1/DTD/svg11.dtd">
<svg version="1.1" id="Layer_1" xmlns="http://www.w3.org/2000/svg" xmlns:xlink="http://www.w3.org/1999/xlink" x="0px" y="0px"
	 width="52px" height="69px" viewBox="0 0 52 69" enable-background="new 0 0 52 69" xml:space="preserve">
<g>
	<g>
		<path fill="#50C2C9" d="M38.952,59.478l3.156,0.499c0.528,0.08,1.065-0.043,1.498-0.354c0.428-0.303,0.724-0.769,0.801-1.286
			l0.477-3.083c0.093-0.622,0.49-1.147,1.063-1.432l2.852-1.394c0.482-0.238,0.847-0.648,1.006-1.145
			c0.17-0.502,0.115-1.04-0.126-1.507l-1.469-2.779c-0.29-0.548-0.29-1.206,0-1.756l1.469-2.777c0.241-0.467,0.293-1.006,0.126-1.51
			c-0.164-0.498-0.526-0.903-1.006-1.142l-2.852-1.394c-0.572-0.284-0.97-0.81-1.063-1.432l-0.477-3.083
			c-0.077-0.519-0.373-0.982-0.801-1.284c-0.433-0.314-0.97-0.439-1.498-0.355l-3.156,0.516c-0.627,0.102-1.26-0.101-1.709-0.543
			l-2.241-2.229c-0.378-0.371-0.885-0.579-1.425-0.579c-0.528,0-1.049,0.212-1.427,0.579l-2.241,2.229
			c-0.443,0.445-1.082,0.645-1.707,0.543l-3.15-0.507c-0.527-0.086-1.065,0.041-1.501,0.354c-0.429,0.301-0.723,0.765-0.803,1.284
			l-0.471,3.083c-0.097,0.619-0.49,1.147-1.063,1.429l-2.855,1.396c-0.474,0.239-0.841,0.646-1.004,1.145
			c-0.166,0.502-0.117,1.041,0.124,1.507l1.47,2.777c0.292,0.547,0.292,1.209,0,1.753l-1.47,2.782
			c-0.241,0.467-0.289,1.003-0.124,1.507c0.166,0.499,0.527,0.906,1.004,1.145l2.855,1.395c0.573,0.281,0.966,0.812,1.063,1.431
			l0.471,3.08c0.08,0.518,0.374,0.987,0.803,1.29c0.433,0.309,0.971,0.437,1.501,0.354l3.15-0.507
			c0.625-0.107,1.264,0.097,1.707,0.542l2.241,2.222c0.381,0.378,0.893,0.587,1.427,0.587c0.535,0,1.05-0.209,1.425-0.587
			l2.241-2.222C37.692,59.574,38.331,59.37,38.952,59.478z M33.575,57.725c-6.705,0-12.155-5.335-12.155-11.892
			s5.453-11.895,12.155-11.895c6.703,0,12.154,5.341,12.154,11.895C45.729,52.39,40.281,57.725,33.575,57.725z M33.577,35.653
			c-5.726,0-10.388,4.556-10.388,10.161s4.665,10.162,10.388,10.162c5.731,0,10.386-4.557,10.386-10.162
			S39.309,35.653,33.577,35.653z M51.678,62.201l-5.649-5.533l-0.287,1.866c-0.135,0.86-0.622,1.654-1.346,2.16
			c-0.712,0.51-1.61,0.729-2.501,0.584l-3.158-0.503c-0.261-0.017-0.417,0.054-0.531,0.171l-0.54,0.528l7.383,7.222
			c0.285,0.281,0.698,0.378,1.079,0.266c0.384-0.118,0.663-0.426,0.74-0.814l0.665-3.504l3.595-0.66
			c0.392-0.072,0.709-0.348,0.824-0.726C52.069,62.882,51.963,62.475,51.678,62.201z M28.518,60.762l-3.253,0.517
			c-0.911,0.141-1.794-0.074-2.514-0.592c-0.715-0.504-1.203-1.295-1.337-2.158l-0.286-1.86l-5.65,5.533
			c-0.281,0.276-0.385,0.681-0.27,1.057c0.121,0.375,0.441,0.648,0.829,0.724l3.59,0.653l0.673,3.513
			c0.074,0.389,0.357,0.696,0.738,0.814c0.379,0.112,0.794,0.016,1.075-0.263l7.38-7.225l-0.537-0.533
			C28.835,60.823,28.68,60.762,28.518,60.762z M36.796,11.568H10.33c-0.953,0-1.726,0.756-1.726,1.689
			c-0.003,0.938,0.77,1.691,1.726,1.691h26.466c0.954,0,1.727-0.752,1.727-1.686S37.744,11.568,36.796,11.568z M36.796,20.227H10.33
			c-0.953,0-1.726,0.754-1.726,1.682C8.602,22.843,9.374,23.6,10.33,23.6h26.466c0.954,0,1.727-0.752,1.727-1.689
			C38.522,20.981,37.744,20.227,36.796,20.227z M18.428,55.483l-1.304-0.635c-0.334-0.164-0.637-0.376-0.917-0.611H5.065
			c-0.763,0-1.384-0.609-1.384-1.352V4.945c0-0.75,0.621-1.356,1.384-1.356h37.08c0.761,0,1.383,0.606,1.383,1.356v24.724
			c0.616,0.142,1.208,0.406,1.724,0.783c1.008,0.705,1.709,1.833,1.896,3.063l0.055-28.566c0.005-2.732-2.266-4.956-5.057-4.956
			H5.065c-2.792,0-5.064,2.227-5.064,4.956v47.943c0,2.734,2.275,4.956,5.064,4.956h10.954L18.428,55.483z"/>
	</g>
</g>
</svg>
