<?xml version="1.0" encoding="utf-8"?>
<!-- Generator: Adobe Illustrator 16.0.0, SVG Export Plug-In . SVG Version: 6.00 Build 0)  -->
<!DOCTYPE svg PUBLIC "-//W3C//DTD SVG 1.1//EN" "http://www.w3.org/Graphics/SVG/1.1/DTD/svg11.dtd">
<svg version="1.1" id="Layer_1" xmlns="http://www.w3.org/2000/svg" xmlns:xlink="http://www.w3.org/1999/xlink" x="0px" y="0px"
	 width="119px" height="82px" viewBox="0 0 119 82" enable-background="new 0 0 119 82" xml:space="preserve">
<g>
	<g>
		<path fill="#50C2C9" d="M115.268,75.896c-1.687,0.125-3.391-0.019-5.084,0.043c-0.83,0.03-1.099-0.178-1.094-1.062
			c0.037-7.895,0.023-15.786,0.023-23.68c0-4.797,0.037-9.594-0.031-14.39c-0.016-1.126,0.333-1.405,1.389-1.342
			c1.473,0.088,2.961-0.062,4.43,0.044c1.793,0.128,3.209-0.343,4.096-1.998v-1.833c-0.607-1.892-1.938-2.391-3.844-2.389
			c-37.215,0.042-74.428,0.038-111.644,0.005c-1.592-0.001-2.778,0.407-3.512,1.859v2.618c0.829,1.344,2.059,1.8,3.589,1.743
			c1.605-0.061,3.216,0.025,4.821-0.043c0.965-0.042,1.302,0.195,1.298,1.264C9.663,49.418,9.668,62.102,9.698,74.783
			c0.001,0.882-0.161,1.208-1.112,1.162c-1.733-0.086-3.469-0.031-5.202-0.125c-1.821-0.045-3.388,0.166-3.388,1.935v2.618
			c0.075,1.15,1.017,1.537,2.07,1.593c16.083-0.007,32.165-0.018,48.248-0.021c21.691-0.004,43.381-0.002,65.073,0
			c0.434,0,0.866,0.033,1.299,0.051c1.231-0.061,2.27-1.17,2.31-1.885c0-0.61,0.005-2.109,0.005-2.721
			C118.848,76.8,118.58,75.754,115.268,75.896z M105.292,75.941c-15.31-0.028-30.618-0.021-45.927-0.021
			c-15.222,0-30.444-0.011-45.666,0.024c-1.09,0.003-1.431-0.172-1.425-1.389c0.055-12.606,0.044-25.216-0.004-37.823
			c-0.004-1.095,0.354-1.265,1.325-1.264c21.569,0.024,43.138,0.018,64.707,0.017c9.001,0,18.003,0.017,27.005-0.024
			c0.971-0.005,1.215,0.224,1.211,1.21c-0.037,12.697-0.039,25.394,0.004,38.091C106.523,75.791,106.217,75.943,105.292,75.941z
			 M19.66,3.638c0.287,0.071,0.604,0.027,0.907,0.027c5.286,0.001,10.57-0.007,15.855,0.008c0.867,0.002,1.654-0.04,2.012-1.017
			c0.374-1.021,0.33-1.938-0.599-2.657H19.047c-0.73,0.521-1.304,1.133-1.015,2.127C18.27,2.942,18.854,3.438,19.66,3.638z
			 M50.194,3.639c0.287,0.071,0.603,0.027,0.906,0.027c5.284,0.001,10.568-0.007,15.853,0.008c0.865,0.002,1.65-0.04,2.014-1.015
			C69.35,1.634,69.29,0.723,68.368,0H49.579c-0.737,0.519-1.303,1.136-1.014,2.13C48.802,2.945,49.387,3.439,50.194,3.639z
			 M80.716,3.637c0.286,0.075,0.604,0.029,0.907,0.029c5.288,0.001,10.576-0.008,15.863,0.009c0.871,0.002,1.668-0.039,2.021-1.01
			C99.88,1.648,99.826,0.722,98.9,0H80.111c-0.725,0.521-1.299,1.126-1.021,2.12C79.322,2.943,79.917,3.427,80.716,3.637z
			 M22.483,26.753c0.923,0.023,0.931-0.411,0.924-1.108c-0.029-3.137-0.013-6.275-0.013-9.412c0-3.225-0.006-6.449,0.004-9.673
			c0.002-0.663,0.154-1.273-0.918-1.269c-0.984,0.004-1.009,0.479-1.007,1.213c0.017,6.406,0.024,12.811-0.008,19.216
			C21.463,26.527,21.684,26.732,22.483,26.753z M34.599,26.744c0.703-0.029,1.088-0.056,1.083-0.962
			c-0.042-6.493-0.038-12.986-0.004-19.479c0.004-0.867-0.361-0.984-1.084-1.01c-0.86-0.031-0.861,0.437-0.857,1.071
			c0.019,3.225,0.009,6.449,0.009,9.674h0.004c0,3.225,0.015,6.45-0.012,9.675C33.731,26.366,33.753,26.778,34.599,26.744z
			 M53.027,26.749c0.791,0.002,0.913-0.306,0.911-0.997c-0.016-6.443-0.009-12.887,0.012-19.331
			c0.002-0.711-0.082-1.125-0.967-1.125c-0.869,0-0.985,0.375-0.978,1.106c0.029,3.178,0.012,6.356,0.012,9.534
			c0,3.265,0.028,6.531-0.02,9.796C51.986,26.558,52.242,26.747,53.027,26.749z M65.177,26.76c0.951,0.01,1.048-0.385,1.041-1.153
			c-0.026-3.179-0.012-6.359-0.012-9.539h-0.015c0-3.223-0.016-6.446,0.011-9.669c0.006-0.716-0.081-1.125-0.968-1.117
			c-0.873,0.008-0.979,0.405-0.978,1.126c0.022,6.403,0.022,12.806,0.021,19.208C64.277,26.261,64.221,26.749,65.177,26.76z
			 M83.52,5.303c-0.721,0.008-0.985,0.205-0.982,0.965c0.023,6.486,0.027,12.973-0.006,19.459c-0.004,0.816,0.23,1.023,1.023,1.021
			c0.784-0.001,0.924-0.294,0.918-0.992c-0.029-3.265-0.014-6.53-0.013-9.795c0.001-3.222-0.017-6.443,0.015-9.665
			C84.479,5.576,84.277,5.295,83.52,5.303z M95.82,26.752c0.936,0.029,0.927-0.433,0.922-1.115
			c-0.023-3.181-0.012-6.362-0.012-9.543h-0.006c0-3.268-0.02-6.537,0.016-9.805c0.007-0.722-0.163-0.969-0.934-0.996
			C94.811,5.258,94.8,5.787,94.802,6.51c0.015,6.406,0.026,12.812-0.005,19.217C94.792,26.546,95.033,26.728,95.82,26.752z
			 M59.275,23.732c0.01,0.806,0.503,1.383,1.385,1.414c0.934,0.032,1.429-0.469,1.523-1.482c-0.082-0.809-0.524-1.394-1.447-1.4
			C59.811,22.257,59.266,22.85,59.275,23.732z M28.748,23.738c0.015,0.797,0.498,1.377,1.381,1.404
			c0.935,0.027,1.409-0.491,1.521-1.473c-0.099-0.81-0.523-1.406-1.454-1.402C29.276,22.271,28.732,22.859,28.748,23.738z
			 M89.812,23.66c-0.022,0.873,0.506,1.425,1.412,1.497c0.941-0.061,1.461-0.534,1.453-1.469c-0.006-0.867-0.5-1.377-1.345-1.42
			C90.408,22.22,89.837,22.781,89.812,23.66z M56.52,19.24c-0.027,0.646,0.382,1.084,0.997,1.121
			c0.631,0.037,0.982-0.419,1.141-1.073c-0.137-0.523-0.349-1.018-1.047-1.036C56.939,18.234,56.546,18.594,56.52,19.24z
			 M25.99,19.233c-0.019,0.66,0.388,1.113,1.021,1.13c0.64,0.017,0.99-0.458,1.107-1.076c-0.135-0.618-0.437-1.053-1.132-1.036
			C26.356,18.266,26.007,18.636,25.99,19.233z M87.066,19.302c0.007,0.674,0.434,1.001,1.109,1.095
			c0.551-0.186,1.032-0.52,0.975-1.177c-0.055-0.63-0.461-1.009-1.16-0.955C87.343,18.314,87.062,18.715,87.066,19.302z
			 M87.021,68.764c1.689-0.066,3.388-0.051,5.08-0.005c0.742,0.021,0.963-0.229,0.963-0.97c-0.021-9.585-0.021-19.171-0.002-28.756
			c0.002-0.731-0.201-0.998-0.955-0.977c-1.691,0.048-3.389,0.063-5.08-0.004c-0.883-0.035-1.09,0.273-1.084,1.118
			c0.037,4.75,0.02,9.499,0.02,14.248h-0.004c0,4.75,0.023,9.499-0.021,14.248C85.93,68.534,86.15,68.799,87.021,68.764z
			 M88.538,41.889c0.717,0.096,1.142,0.475,1.123,1.098c-0.019,0.604-0.386,1.035-1.081,1.013c-0.627-0.021-0.936-0.378-0.965-0.976
			C87.583,42.339,88.025,42.047,88.538,41.889z M25.982,68.764c1.647-0.064,3.3-0.05,4.949-0.006
			c0.747,0.02,1.074-0.137,1.072-0.992c-0.022-9.584-0.014-19.168,0.013-28.751c0.002-0.759-0.255-0.974-0.979-0.956
			c-1.649,0.042-3.303,0.077-4.949-0.01c-1.014-0.054-1.223,0.306-1.213,1.258c0.047,4.705,0.021,9.41,0.021,14.115h-0.005
			c0,4.748,0.02,9.496-0.018,14.244C24.868,68.527,25.123,68.797,25.982,68.764z M27.577,41.925c0.658-0.001,0.935,0.499,1.05,1.062
			c-0.143,0.641-0.442,1.059-1.136,1.012c-0.622-0.043-0.931-0.41-0.937-1.004C26.548,42.328,26.939,41.925,27.577,41.925z
			 M56.631,68.766c1.646-0.08,3.3-0.056,4.948-0.007c0.756,0.022,0.965-0.251,0.953-0.979c-0.037-2.177-0.007-4.355-0.007-6.533
			c0.004-7.317-0.01-14.636,0.025-21.954c0.006-0.956-0.238-1.302-1.236-1.245c-1.56,0.088-3.128,0.087-4.688,0
			c-1.004-0.056-1.23,0.289-1.22,1.25c0.049,4.703,0.022,9.408,0.022,14.112h-0.017c0,4.705,0.027,9.408-0.022,14.113
			C55.381,68.504,55.647,68.814,56.631,68.766z M58.059,41.896c0.666,0.084,1.074,0.465,1.059,1.092
			c-0.014,0.613-0.379,1.033-1.073,1.01c-0.625-0.021-0.938-0.38-0.96-0.977C57.06,42.352,57.464,42.021,58.059,41.896z
			 M34.441,38.039c-0.969,0.044-0.681,0.74-0.682,1.236c-0.018,9.86-0.034,19.719-0.005,29.579c0.003,1.211-0.303,1.73-1.62,1.677
			c-2.301-0.099-4.608-0.021-6.913-0.017c-1.731,0.004-1.813-0.078-1.813-1.863c-0.005-9.814-0.016-19.631-0.003-29.447
			c0.001-0.771-0.085-1.206-1.034-1.197c-0.947,0.009-0.908,0.526-0.907,1.18c0.013,9.86,0.013,19.719,0.021,29.58
			c0.002,2.393,1.007,3.404,3.404,3.414c2.435,0.01,4.871-0.005,7.306-0.013c2.542-0.01,3.456-0.913,3.46-3.446
			c0.008-4.887,0.002-9.772,0.002-14.658c0-4.975-0.028-9.947,0.024-14.92C35.693,38.129,35.266,38.001,34.441,38.039z
			 M65.257,38.02c-0.851,0-1.015,0.313-0.989,1.077c0.049,1.524,0.006,3.051,0.006,4.577c-0.002,8.413-0.017,16.827,0.011,25.241
			c0.004,1.138-0.3,1.655-1.552,1.61c-2.344-0.086-4.692-0.012-7.04-0.014c-1.66,0-1.744-0.066-1.75-1.793
			c-0.015-4.839-0.008-9.679-0.01-14.518c-0.002-5.057-0.015-10.114,0.005-15.171c0.002-0.691-0.123-0.991-0.916-1.021
			c-1.11-0.042-1.024,0.619-1.023,1.341c0.01,9.853,0.008,19.705,0.022,29.558c0.003,2.205,0.97,3.213,3.152,3.249
			c2.52,0.04,5.04,0.02,7.562,0.007c2.55-0.014,3.445-0.898,3.453-3.446c0.014-4.883,0.004-9.766,0.004-14.647
			c0-4.971-0.008-9.939,0.009-14.909C66.202,38.47,66.168,38.02,65.257,38.02z M96.723,39.405c0-0.672,0.209-1.386-0.949-1.401
			c-1.16-0.016-0.965,0.671-0.965,1.363c0.004,9.809-0.01,19.617,0.024,29.427c0.005,1.269-0.369,1.8-1.711,1.745
			c-2.257-0.092-4.519-0.023-6.778-0.025c-1.795,0-1.883-0.084-1.884-1.938c0-9.766,0.002-19.53,0.013-29.295
			c0-0.679,0.111-1.262-0.938-1.265c-1.002-0.002-0.994,0.505-0.993,1.225c0.013,9.896,0.002,19.792,0.015,29.688
			c0.002,2.19,0.998,3.202,3.168,3.23c2.434,0.031,4.867,0.027,7.301,0.02c2.863-0.012,3.703-0.854,3.711-3.74
			c0.012-4.797,0.002-9.592,0.002-14.388h-0.014C96.725,49.17,96.725,44.287,96.723,39.405z"/>
	</g>
</g>
</svg>
