<?xml version="1.0" encoding="utf-8"?>
<!-- Generator: Adobe Illustrator 16.0.0, SVG Export Plug-In . SVG Version: 6.00 Build 0)  -->
<!DOCTYPE svg PUBLIC "-//W3C//DTD SVG 1.1//EN" "http://www.w3.org/Graphics/SVG/1.1/DTD/svg11.dtd">
<svg version="1.1" id="Layer_1" xmlns="http://www.w3.org/2000/svg" xmlns:xlink="http://www.w3.org/1999/xlink" x="0px" y="0px"
	 width="131px" height="131px" viewBox="0 0 131 131" enable-background="new 0 0 131 131" xml:space="preserve">
<g>
	<g>
		<path fill-rule="evenodd" clip-rule="evenodd" fill="#50C2C9" d="M65.5,0C29.325,0,0,29.325,0,65.5S29.325,131,65.5,131
			c36.174,0,65.5-29.325,65.5-65.5S101.674,0,65.5,0z M55.338,58.52c0.244-2.173,0.958-4.18,2.897-5.392
			c1.729-1.079,3.703-1.365,5.742-1.138c1.042,0.117,2.038,0.378,3.005,0.778c1.504,0.622,2.29,1.878,2.91,3.272
			c0.539,1.211,0.727,2.489,0.65,3.81c0,0.29,0.005,0.579-0.002,0.868c-0.008,0.396-0.019,0.766,0.375,1.047
			c0.165,0.118,0.252,0.4,0.297,0.624c0.299,1.483-0.006,2.871-0.737,4.176c-0.18,0.32-0.351,0.667-0.606,0.919
			c-0.584,0.573-0.846,1.299-1.15,2.027c-0.714,1.709-1.865,3.055-3.59,3.814c-2.338,1.028-4.396,0.437-6.213-1.212
			c-1.058-0.958-1.734-2.164-2.145-3.526c-0.054-0.181-0.175-0.354-0.305-0.495c-1.015-1.103-1.724-2.371-1.895-3.863
			c-0.078-0.676,0.052-1.379,0.124-2.066c0.017-0.164,0.143-0.371,0.282-0.457c0.332-0.205,0.337-0.494,0.335-0.82
			C55.307,60.097,55.251,59.3,55.338,58.52z M56.609,71.689c0.298-0.127,0.422,0.014,0.579,0.219c1.167,1.53,2.667,2.587,4.562,2.97
			c1.595,0.323,3.115-0.01,4.52-0.83c0.885-0.518,1.667-1.165,2.271-1.992c0.266-0.362,0.479-0.478,0.928-0.276
			c1.868,0.837,3.772,1.597,5.633,2.451c1.997,0.916,3.31,2.506,4.187,4.484c0.714,1.612,1.144,3.293,1.251,5.055
			c0.043,0.73-0.021,0.827-0.719,1.103c-1.646,0.649-3.358,1.031-5.098,1.328c-3.912,0.668-7.855,0.844-11.814,0.846
			c-0.001,0.036-0.003,0.071-0.005,0.107c-2.867-0.166-5.738-0.28-8.6-0.515c-2.203-0.18-4.386-0.561-6.52-1.159
			c-0.656-0.184-1.295-0.429-1.933-0.671c-0.515-0.195-0.607-0.343-0.569-0.896c0.083-1.194,0.265-2.374,0.636-3.517
			c0.52-1.599,1.207-3.105,2.365-4.364c1.043-1.133,2.361-1.834,3.748-2.428C53.551,72.952,55.086,72.337,56.609,71.689z
			 M79.405,76.304c-1.083-1.673-2.636-2.816-4.437-3.619c-1.547-0.689-3.121-1.318-4.683-1.975c-0.157-0.066-0.31-0.143-0.521-0.241
			c0.303-0.864,0.644-1.666,1.218-2.354c0.184-0.221,0.363-0.45,0.512-0.696c0.132-0.22,0.293-0.271,0.527-0.214
			c2.219,0.548,4.168-0.047,5.891-1.456c0.535-0.438,0.984-0.984,1.447-1.503c0.148-0.166,0.268-0.228,0.471-0.141
			c1.858,0.797,3.725,1.576,5.576,2.389c2.371,1.041,3.863,2.892,4.769,5.261c0.581,1.518,0.97,3.077,0.999,4.715
			c0.008,0.368-0.107,0.606-0.466,0.718c-1.164,0.36-2.31,0.807-3.496,1.064c-1.593,0.346-3.215,0.553-4.827,0.804
			c-0.415,0.065-0.841,0.063-1.26,0.108c-0.328,0.037-0.293-0.253-0.381-0.413C80.292,77.938,79.91,77.081,79.405,76.304z
			 M80.012,60.521c-0.255,0.292-0.376,0.71-0.523,1.083c-0.762,1.926-1.986,3.423-3.941,4.233c-1.038,0.43-2.282,0.607-3.356,0.188
			c0.31-0.884,0.512-1.787,0.454-2.733c-0.051-0.833-0.164-1.642-0.697-2.337c-0.094-0.123-0.098-0.341-0.09-0.513
			c0.129-3.053-0.512-5.828-2.9-7.96c-0.747-0.667-1.647-1.08-2.602-1.36c-0.297-0.088-0.394-0.202-0.357-0.523
			c0.186-1.604,0.853-2.995,1.852-4.236c0.68-0.846,1.658-1.227,2.656-1.539c1.531-0.479,3.096-0.621,4.683-0.336
			c1.078,0.193,2.122,0.495,3.08,1.053c1.085,0.631,1.655,1.669,2.165,2.742c0.471,0.994,0.73,2.046,0.701,3.162
			c-0.018,0.696,0.01,1.395,0.039,2.091c0.006,0.155,0.063,0.363,0.173,0.45c0.428,0.335,0.532,0.794,0.575,1.287
			C82.1,57.317,81.33,59.011,80.012,60.521z M30.367,47.744c2.38-0.79,4.543-0.298,6.429,1.347c0.255,0.223,0.425,0.243,0.717,0.068
			c3.416-2.054,6.84-4.093,10.263-6.135c0.541-0.322,0.548-0.319,0.414-0.924c-0.638-2.876,0.866-5.8,3.402-7.059
			c3.522-1.747,7.857,0.072,9.02,3.829c0.138,0.447,0.196,0.926,0.239,1.394c0.029,0.314,0.154,0.484,0.451,0.555
			c1.471,0.344,2.941,0.688,4.411,1.036c1.228,0.292,2.453,0.589,3.679,0.886c0.035,0.009,0.064,0.041,0.156,0.103
			c-1.184,0.467-2.197,1.089-3.088,1.908c-0.076,0.068-0.248,0.082-0.358,0.056c-1.827-0.435-3.651-0.873-5.474-1.327
			c-0.273-0.067-0.357,0.091-0.449,0.267c-0.664,1.265-1.646,2.191-2.929,2.826c-2.309,1.143-5.391,0.676-7.219-1.143
			c-0.26-0.26-0.438-0.267-0.741-0.085c-3.429,2.058-6.864,4.104-10.303,6.145c-0.321,0.19-0.421,0.348-0.327,0.772
			c0.56,2.519-0.107,4.691-2.055,6.408c-1.481,1.306-3.277,1.788-5.189,1.456c-2.615-0.454-4.394-1.985-5.159-4.569
			C25.285,52.266,27.067,48.84,30.367,47.744z M100.547,87.185c-2.545,0.773-4.777,0.196-6.666-1.671
			c-0.209-0.207-0.371-0.232-0.617-0.101c-3.291,1.765-6.581,3.53-9.881,5.278c-0.357,0.189-0.471,0.413-0.46,0.806
			c0.074,2.654-1.628,5.023-3.997,5.984c-2.901,1.177-6.291,0.049-7.928-2.642c-0.32-0.526-0.389-0.532-0.975-0.378
			c-1.027,0.27-2.063,0.511-3.097,0.76c-1.265,0.305-2.53,0.606-3.795,0.908c-0.588,0.141-1.174,0.295-1.767,0.412
			c-0.342,0.068-0.49,0.233-0.511,0.582c-0.149,2.602-2.003,4.92-4.621,5.635c-3.436,0.938-6.837-0.935-7.875-4.192
			c-0.352-1.104-0.428-2.214-0.157-3.338c0.096-0.4,0.007-0.626-0.375-0.851c-3.454-2.04-6.894-4.104-10.333-6.171
			c-0.272-0.163-0.444-0.152-0.686,0.068c-1.521,1.396-3.352,1.975-5.36,1.635c-2.617-0.441-4.388-1.972-5.187-4.547
			c-0.982-3.168,0.767-6.595,3.775-7.735c0.75-0.285,1.571-0.384,2.36-0.567c0.008,0.036,0.017,0.072,0.025,0.108
			c2.827-0.011,5.197,1.759,6.075,4.275c0.438,1.257,0.525,2.544,0.118,3.833c-0.091,0.289,0.049,0.402,0.26,0.528
			c2.272,1.352,4.541,2.709,6.811,4.065c1.22,0.728,2.446,1.445,3.656,2.189c0.27,0.166,0.424,0.134,0.643-0.078
			c1.571-1.519,3.485-2.059,5.598-1.714c2.02,0.329,3.552,1.464,4.543,3.268c0.163,0.296,0.324,0.404,0.65,0.322
			c1.058-0.267,2.118-0.521,3.18-0.776c1.008-0.241,2.019-0.477,3.027-0.717c0.934-0.222,1.87-0.431,2.794-0.688
			c0.141-0.039,0.275-0.288,0.317-0.463c0.154-0.647,0.266-1.306,0.402-1.959c0.066-0.319,0.26-0.464,0.605-0.5
			c1.506-0.156,3.016-0.286,4.508-0.531c1.686-0.276,3.359-0.634,4.918-1.386c0.115-0.055,0.356-0.018,0.445,0.07
			c0.306,0.305,0.609,0.627,0.838,0.99c0.203,0.322,0.381,0.308,0.669,0.151c1.514-0.821,3.035-1.629,4.554-2.442
			c1.587-0.852,3.166-1.72,4.766-2.545c0.42-0.217,0.509-0.46,0.434-0.902c-0.4-2.324,0.33-4.288,2.051-5.861
			c1.268-1.158,2.808-1.664,4.534-1.601c2.737,0.101,4.985,1.854,5.833,4.335C105.803,82.401,103.961,86.148,100.547,87.185z
			 M100.662,40.438c-2.576,0.831-4.853,0.27-6.783-1.63c-0.201-0.198-0.353-0.242-0.613-0.102
			c-3.358,1.805-6.721,3.601-10.088,5.389c-0.318,0.169-0.397,0.335-0.327,0.711c0.185,0.988,0.118,1.979-0.219,3.039
			c-0.178-0.359-0.312-0.647-0.46-0.929c-0.877-1.667-2.107-2.985-3.846-3.768c-1.172-0.527-2.424-0.83-3.701-0.887
			c-1.098-0.049-2.203,0.075-3.307,0.121c-0.048,0.002-0.098-0.013-0.192-0.025c0.476-0.766,1.076-1.356,1.792-1.832
			c2.667-1.772,6.156-1.356,8.34,1.004c0.205,0.223,0.363,0.273,0.636,0.127c3.312-1.781,6.622-3.561,9.946-5.316
			c0.396-0.209,0.479-0.437,0.4-0.842c-0.371-1.928,0.115-3.658,1.338-5.163c1.235-1.521,2.861-2.327,4.841-2.335
			c2.815-0.01,4.849,1.28,6.014,3.818C105.994,35.22,104.199,39.296,100.662,40.438z"/>
	</g>
</g>
</svg>
