<?xml version="1.0" encoding="utf-8"?>
<!-- Generated by IcoMoon.io -->
<!DOCTYPE svg PUBLIC "-//W3C//DTD SVG 1.1//EN" "http://www.w3.org/Graphics/SVG/1.1/DTD/svg11.dtd">
<svg version="1.1" xmlns="http://www.w3.org/2000/svg" xmlns:xlink="http://www.w3.org/1999/xlink" width="32" height="32" viewBox="0 0 32 32">
<path fill="#444444" d="M16 0c-8.837 0-16 7.163-16 16s7.163 16 16 16c8.836 0 16-7.163 16-16s-7.164-16-16-16zM13.518 14.295c0.060-0.531 0.234-1.021 0.708-1.317 0.422-0.264 0.905-0.333 1.403-0.278 0.255 0.029 0.498 0.092 0.734 0.19 0.367 0.152 0.559 0.459 0.711 0.799 0.132 0.296 0.178 0.608 0.159 0.931 0 0.071 0.001 0.141-0 0.212-0.002 0.097-0.005 0.187 0.092 0.256 0.040 0.029 0.062 0.098 0.073 0.152 0.073 0.362-0.001 0.701-0.18 1.020-0.044 0.078-0.086 0.163-0.148 0.224-0.143 0.14-0.207 0.317-0.281 0.495-0.174 0.417-0.456 0.746-0.877 0.932-0.571 0.251-1.074 0.107-1.518-0.296-0.258-0.234-0.424-0.529-0.524-0.861-0.013-0.044-0.043-0.086-0.075-0.121-0.248-0.269-0.421-0.579-0.463-0.944-0.019-0.165 0.013-0.337 0.030-0.505 0.004-0.040 0.035-0.091 0.069-0.112 0.081-0.050 0.082-0.121 0.082-0.2-0.001-0.193-0.015-0.387 0.006-0.578zM13.828 17.512c0.073-0.031 0.103 0.003 0.141 0.053 0.285 0.374 0.651 0.632 1.114 0.726 0.39 0.079 0.761-0.002 1.104-0.203 0.216-0.127 0.407-0.285 0.555-0.487 0.065-0.088 0.117-0.117 0.227-0.067 0.456 0.204 0.921 0.39 1.376 0.599 0.488 0.224 0.809 0.612 1.023 1.095 0.174 0.394 0.279 0.804 0.306 1.235 0.011 0.178-0.005 0.202-0.176 0.269-0.402 0.159-0.82 0.252-1.245 0.324-0.956 0.163-1.919 0.206-2.886 0.207-0 0.009-0.001 0.017-0.001 0.026-0.7-0.041-1.402-0.068-2.101-0.126-0.538-0.044-1.071-0.137-1.593-0.283-0.16-0.045-0.316-0.105-0.472-0.164-0.126-0.048-0.148-0.084-0.139-0.219 0.020-0.292 0.065-0.58 0.155-0.859 0.127-0.391 0.295-0.758 0.578-1.066 0.255-0.277 0.577-0.448 0.916-0.593 0.371-0.159 0.746-0.309 1.118-0.468zM19.397 18.639c-0.265-0.409-0.644-0.688-1.084-0.884-0.378-0.168-0.762-0.322-1.144-0.482-0.038-0.016-0.076-0.035-0.127-0.059 0.074-0.211 0.157-0.407 0.298-0.575 0.045-0.054 0.089-0.11 0.125-0.17 0.032-0.054 0.072-0.066 0.129-0.052 0.542 0.134 1.018-0.011 1.439-0.356 0.131-0.107 0.24-0.24 0.353-0.367 0.036-0.041 0.065-0.056 0.115-0.034 0.454 0.195 0.91 0.385 1.362 0.584 0.579 0.254 0.944 0.706 1.165 1.285 0.142 0.371 0.237 0.752 0.244 1.152 0.002 0.090-0.026 0.148-0.114 0.175-0.284 0.088-0.564 0.197-0.854 0.26-0.389 0.085-0.785 0.135-1.179 0.196-0.101 0.016-0.205 0.015-0.308 0.026-0.080 0.009-0.072-0.062-0.093-0.101-0.11-0.199-0.204-0.408-0.327-0.598zM19.545 14.784c-0.062 0.071-0.092 0.173-0.128 0.265-0.186 0.47-0.485 0.836-0.963 1.034-0.254 0.105-0.557 0.148-0.82 0.046 0.076-0.216 0.125-0.437 0.111-0.668-0.012-0.203-0.040-0.401-0.17-0.571-0.023-0.030-0.024-0.083-0.022-0.125 0.032-0.746-0.125-1.424-0.708-1.944-0.182-0.163-0.402-0.264-0.636-0.332-0.073-0.021-0.096-0.049-0.087-0.128 0.045-0.392 0.208-0.732 0.452-1.035 0.166-0.207 0.405-0.3 0.649-0.376 0.374-0.117 0.756-0.152 1.144-0.082 0.263 0.047 0.518 0.121 0.752 0.257 0.265 0.154 0.404 0.408 0.529 0.67 0.115 0.243 0.178 0.5 0.171 0.772-0.004 0.17 0.002 0.341 0.010 0.511 0.001 0.038 0.015 0.089 0.042 0.11 0.105 0.082 0.13 0.194 0.14 0.314 0.043 0.499-0.145 0.913-0.467 1.282zM7.418 11.663c0.581-0.193 1.11-0.073 1.57 0.329 0.062 0.054 0.104 0.059 0.175 0.017 0.834-0.502 1.671-1 2.507-1.499 0.132-0.079 0.134-0.078 0.101-0.226-0.156-0.703 0.212-1.417 0.831-1.724 0.86-0.427 1.919 0.018 2.203 0.935 0.034 0.109 0.048 0.226 0.058 0.341 0.007 0.077 0.038 0.118 0.11 0.136 0.359 0.084 0.718 0.168 1.077 0.253 0.3 0.071 0.599 0.144 0.899 0.216 0.009 0.002 0.016 0.010 0.038 0.025-0.289 0.114-0.537 0.266-0.754 0.466-0.019 0.017-0.061 0.020-0.087 0.014-0.446-0.106-0.892-0.213-1.337-0.324-0.067-0.016-0.087 0.022-0.11 0.065-0.162 0.309-0.402 0.535-0.715 0.69-0.564 0.279-1.317 0.165-1.763-0.279-0.063-0.063-0.107-0.065-0.181-0.021-0.838 0.503-1.677 1.002-2.517 1.501-0.078 0.046-0.103 0.085-0.080 0.189 0.137 0.615-0.026 1.146-0.502 1.565-0.362 0.319-0.8 0.437-1.268 0.356-0.639-0.111-1.073-0.485-1.26-1.116-0.237-0.804 0.198-1.641 1.004-1.909zM24.561 21.297c-0.622 0.189-1.167 0.048-1.628-0.408-0.051-0.051-0.091-0.057-0.151-0.025-0.804 0.431-1.608 0.862-2.414 1.289-0.087 0.046-0.115 0.101-0.112 0.197 0.018 0.648-0.398 1.227-0.976 1.462-0.709 0.288-1.537 0.012-1.937-0.645-0.078-0.128-0.095-0.13-0.238-0.092-0.251 0.066-0.504 0.125-0.757 0.186-0.309 0.075-0.618 0.148-0.927 0.222-0.144 0.034-0.287 0.072-0.432 0.101-0.084 0.017-0.12 0.057-0.125 0.142-0.036 0.636-0.489 1.202-1.129 1.377-0.839 0.229-1.67-0.228-1.924-1.024-0.086-0.27-0.105-0.541-0.038-0.815 0.023-0.098 0.002-0.153-0.092-0.208-0.844-0.498-1.684-1.003-2.524-1.507-0.066-0.040-0.108-0.037-0.168 0.017-0.372 0.341-0.819 0.482-1.309 0.399-0.639-0.108-1.072-0.482-1.267-1.111-0.24-0.774 0.187-1.611 0.922-1.889 0.183-0.070 0.384-0.094 0.577-0.139 0.002 0.009 0.004 0.018 0.006 0.026 0.691-0.003 1.269 0.43 1.484 1.044 0.107 0.307 0.128 0.621 0.029 0.936-0.022 0.071 0.012 0.098 0.063 0.129 0.555 0.33 1.109 0.662 1.664 0.993 0.298 0.178 0.598 0.353 0.893 0.535 0.066 0.041 0.104 0.033 0.157-0.019 0.384-0.371 0.851-0.503 1.367-0.419 0.493 0.080 0.868 0.358 1.11 0.798 0.040 0.072 0.079 0.099 0.159 0.079 0.258-0.065 0.517-0.127 0.777-0.19 0.246-0.059 0.493-0.117 0.739-0.175 0.228-0.054 0.457-0.105 0.683-0.168 0.034-0.010 0.067-0.070 0.077-0.113 0.038-0.158 0.065-0.319 0.098-0.479 0.016-0.078 0.064-0.113 0.148-0.122 0.368-0.038 0.737-0.070 1.101-0.13 0.412-0.067 0.821-0.155 1.201-0.339 0.028-0.013 0.087-0.004 0.109 0.017 0.075 0.075 0.149 0.153 0.205 0.242 0.050 0.079 0.093 0.075 0.163 0.037 0.37-0.201 0.741-0.398 1.112-0.597 0.388-0.208 0.773-0.42 1.164-0.622 0.103-0.053 0.124-0.112 0.106-0.22-0.098-0.568 0.081-1.047 0.501-1.432 0.31-0.283 0.686-0.406 1.108-0.391 0.669 0.025 1.218 0.453 1.425 1.059 0.282 0.823-0.168 1.738-1.002 1.992zM24.589 9.878c-0.629 0.203-1.185 0.066-1.657-0.398-0.049-0.048-0.086-0.059-0.15-0.025-0.82 0.441-1.642 0.88-2.464 1.316-0.078 0.041-0.097 0.082-0.080 0.174 0.045 0.241 0.029 0.483-0.053 0.742-0.043-0.088-0.076-0.158-0.112-0.227-0.214-0.407-0.515-0.729-0.939-0.92-0.286-0.129-0.592-0.203-0.904-0.217-0.268-0.012-0.538 0.018-0.808 0.030-0.012 0.001-0.024-0.003-0.047-0.006 0.116-0.187 0.263-0.331 0.438-0.447 0.651-0.433 1.504-0.331 2.037 0.245 0.050 0.054 0.089 0.067 0.155 0.031 0.809-0.435 1.618-0.87 2.43-1.299 0.097-0.051 0.117-0.107 0.098-0.206-0.091-0.471 0.028-0.894 0.327-1.261 0.302-0.372 0.699-0.568 1.183-0.57 0.688-0.002 1.184 0.313 1.469 0.933 0.381 0.831-0.057 1.827-0.921 2.106z"></path>
</svg>
