<?xml version="1.0" encoding="utf-8"?>
<!-- Generator: Adobe Illustrator 16.0.0, SVG Export Plug-In . SVG Version: 6.00 Build 0)  -->
<!DOCTYPE svg PUBLIC "-//W3C//DTD SVG 1.1//EN" "http://www.w3.org/Graphics/SVG/1.1/DTD/svg11.dtd">
<svg version="1.1" id="Layer_1" xmlns="http://www.w3.org/2000/svg" xmlns:xlink="http://www.w3.org/1999/xlink" x="0px" y="0px"
	 width="41px" height="42px" viewBox="0 0 41 42" enable-background="new 0 0 41 42" xml:space="preserve">
<g>
	<path fill-rule="evenodd" clip-rule="evenodd" fill="#50C2C9" d="M19.697,0.458C19.69,2.369,19.682,4.28,19.676,6.19
		c-0.003,0.88,0,1.759,0,2.667c-3.76,0.285-6.827,1.842-9.113,4.819c-1.72,2.24-2.529,4.801-2.467,7.624
		c0.136,6.162,4.995,11.451,11.58,11.846c0,0.176,0,0.357,0,0.537c0,2.473-0.001,4.945,0,7.42c0,0.145,0.015,0.293,0.022,0.438
		c-0.133,0-0.267,0-0.401,0c-0.183-0.244-0.463-0.463-0.531-0.734c-0.213-0.854-0.349-1.725-0.511-2.592
		c-0.103-0.551-0.278-0.723-0.819-0.834c-0.587-0.123-1.174-0.252-1.756-0.395c-0.532-0.129-0.775-0.055-1.103,0.398
		c-0.517,0.713-1.026,1.434-1.546,2.145c-0.309,0.422-0.6,0.496-1.078,0.279c-0.4-0.182-0.799-0.367-1.192-0.566
		c-0.488-0.248-0.602-0.516-0.46-1.049c0.226-0.852,0.455-1.701,0.682-2.553c0.142-0.531,0.062-0.744-0.366-1.07
		c-0.478-0.365-0.951-0.736-1.419-1.113c-0.426-0.346-0.65-0.377-1.126-0.121c-0.776,0.418-1.548,0.844-2.327,1.256
		c-0.466,0.248-0.793,0.186-1.139-0.217c-0.278-0.322-0.545-0.658-0.804-0.998c-0.337-0.439-0.331-0.727,0.025-1.145
		c0.561-0.664,1.13-1.32,1.695-1.98c0.386-0.449,0.402-0.678,0.138-1.195c-0.273-0.535-0.544-1.072-0.781-1.621
		c-0.177-0.412-0.45-0.609-0.895-0.588c-0.908,0.045-1.816,0.08-2.724,0.123c-0.516,0.023-0.765-0.148-0.901-0.652
		c-0.139-0.514-0.266-1.031-0.398-1.547c0-0.027,0-0.055,0-0.08c0.114-0.406,0.397-0.627,0.78-0.783
		c0.777-0.314,1.542-0.662,2.313-0.99c0.391-0.166,0.564-0.449,0.552-0.879C3.586,21.4,3.583,20.76,3.602,20.121
		c0.013-0.447-0.168-0.731-0.578-0.9C2.262,18.906,1.493,18.6,0.75,18.245c-0.294-0.141-0.529-0.406-0.791-0.615
		c0-0.133,0-0.268,0-0.401c0.106-0.426,0.21-0.852,0.32-1.277c0.16-0.62,0.348-0.762,0.991-0.74c0.869,0.03,1.736,0.07,2.604,0.096
		c0.532,0.016,0.728-0.127,0.953-0.62c0.249-0.545,0.505-1.089,0.771-1.627c0.243-0.489,0.226-0.722-0.128-1.126
		c-0.59-0.674-1.185-1.343-1.771-2.021c-0.316-0.367-0.33-0.699-0.042-1.087C3.92,8.473,4.192,8.125,4.475,7.787
		C4.855,7.332,5.137,7.281,5.668,7.56C6.436,7.963,7.2,8.375,7.967,8.78c0.48,0.253,0.719,0.215,1.127-0.129
		c0.449-0.379,0.904-0.752,1.366-1.114c0.48-0.378,0.555-0.576,0.389-1.174c-0.221-0.797-0.444-1.593-0.665-2.391
		c-0.182-0.66-0.072-0.907,0.553-1.219c0.334-0.167,0.672-0.327,1.013-0.48c0.547-0.247,0.822-0.177,1.176,0.297
		c0.535,0.718,1.065,1.439,1.598,2.159c0.249,0.337,0.554,0.454,0.979,0.337c0.617-0.169,1.244-0.299,1.871-0.432
		c0.414-0.087,0.657-0.311,0.73-0.737c0.143-0.829,0.325-1.65,0.445-2.482c0.065-0.453,0.251-0.772,0.667-0.956
		C19.377,0.458,19.537,0.458,19.697,0.458z"/>
	<path fill-rule="evenodd" clip-rule="evenodd" fill="#50C2C9" d="M41.041,21.963c-0.059,0.46-0.125,0.919-0.174,1.38
		c-0.422,3.902-1.9,7.363-4.334,10.43c-0.119,0.15-0.209,0.279-0.455,0.168c-1.68-0.752-3.367-1.486-5.053-2.229
		c-0.035-0.016-0.064-0.045-0.053-0.035c0.596-1.627,1.283-3.209,1.746-4.852c0.459-1.633,0.689-3.33,1.035-5.079
		c0.039,0,0.195,0,0.35,0c2.152,0,4.307,0,6.459-0.002c0.16,0,0.318-0.016,0.479-0.023C41.041,21.802,41.041,21.883,41.041,21.963z"
		/>
	<path fill-rule="evenodd" clip-rule="evenodd" fill="#50C2C9" d="M41.041,20.197c-2.018-0.005-4.033-0.011-6.051-0.017
		c-0.375-0.001-0.75,0.015-1.123-0.014c-0.094-0.007-0.252-0.154-0.256-0.242c-0.133-3.386-1.023-6.571-2.527-9.596
		c-0.01-0.022-0.01-0.05-0.025-0.119c0.359-0.145,0.732-0.279,1.092-0.441c1.266-0.571,2.529-1.141,3.783-1.734
		c0.279-0.132,0.43-0.116,0.627,0.136c1.977,2.522,3.311,5.348,3.961,8.481c0.213,1.014,0.287,2.056,0.428,3.084
		c0.018,0.129,0.061,0.254,0.092,0.382C41.041,20.145,41.041,20.17,41.041,20.197z"/>
	<path fill-rule="evenodd" clip-rule="evenodd" fill="#50C2C9" d="M21.266,20.149c0-2.655,0-5.271,0-7.936
		c0.615-0.056,1.221-0.112,1.828-0.167c2.051-0.188,4.061-0.584,6.023-1.204c0.342-0.108,0.484-0.033,0.635,0.283
		c1.109,2.3,1.879,4.701,2.182,7.242c0.059,0.489,0.07,0.985,0.098,1.478c0.006,0.091-0.014,0.183-0.023,0.305
		C28.434,20.149,24.873,20.149,21.266,20.149z"/>
	<path fill-rule="evenodd" clip-rule="evenodd" fill="#50C2C9" d="M21.275,21.763c3.588,0,7.137,0,10.758,0
		c-0.141,3.34-1.141,6.407-2.637,9.385c-2.65-0.826-5.344-1.305-8.121-1.424C21.275,27.059,21.275,24.436,21.275,21.763z"/>
	<path fill-rule="evenodd" clip-rule="evenodd" fill="#50C2C9" d="M21.27,10.631c0-3.369,0-6.675,0-10.065
		c3.086,2.461,5.486,5.407,7.521,8.762C26.314,10.104,23.844,10.502,21.27,10.631z"/>
	<path fill-rule="evenodd" clip-rule="evenodd" fill="#50C2C9" d="M21.271,41.492c0-3.473,0-6.809,0-10.139
		c1.041-0.201,6.277,0.682,7.34,1.246C26.648,35.926,24.111,38.766,21.271,41.492z"/>
	<path fill-rule="evenodd" clip-rule="evenodd" fill="#50C2C9" d="M23.824,41.236c0.965-1.098,1.869-2.098,2.742-3.123
		c1.277-1.496,2.42-3.092,3.4-4.799c0.105-0.186,0.188-0.297,0.43-0.189c1.559,0.691,3.123,1.373,4.686,2.059
		c0.035,0.016,0.061,0.047,0.125,0.098C32.066,38.484,28.309,40.443,23.824,41.236z"/>
	<path fill-rule="evenodd" clip-rule="evenodd" fill="#50C2C9" d="M23.879,0.694c4.447,0.787,8.184,2.792,11.379,5.995
		c-0.988,0.455-1.914,0.894-2.85,1.308c-0.609,0.269-1.238,0.497-1.855,0.75c-0.191,0.078-0.301,0.054-0.416-0.143
		c-1.697-2.87-3.732-5.473-6.164-7.759C23.945,0.82,23.932,0.782,23.879,0.694z"/>
</g>
</svg>
