<?xml version="1.0" encoding="utf-8"?>
<!-- Generator: Adobe Illustrator 16.0.0, SVG Export Plug-In . SVG Version: 6.00 Build 0)  -->
<!DOCTYPE svg PUBLIC "-//W3C//DTD SVG 1.1//EN" "http://www.w3.org/Graphics/SVG/1.1/DTD/svg11.dtd">
<svg version="1.1" id="Layer_1" xmlns="http://www.w3.org/2000/svg" xmlns:xlink="http://www.w3.org/1999/xlink" x="0px" y="0px"
	 width="59px" height="40px" viewBox="0 0 59 40" enable-background="new 0 0 59 40" xml:space="preserve">
<g>
	<g>
		<path fill="#50C2C9" d="M5,11H2c-1.104,0-2,0.896-2,2v23h7V13C7,11.896,6.104,11,5,11z M53,10c0-1.104-0.896-2-2-2h-3
			c-1.104,0-2,0.896-2,2v8.393C46.961,18.146,47.962,18,49,18c0.148,0,0.295,0.014,0.441,0.02L49.443,18
			c0,0,0.074,0.011,0.182,0.028c1.177,0.063,2.311,0.292,3.375,0.669V10z M16,19h-3c-1.104,0-2,0.895-2,2v15h7V21
			C18,19.896,17.104,19,16,19z M3,10c0.79,0,1.503-0.312,2.039-0.811l6.988,4.076C12.163,14.796,13.434,16,15,16
			c1.424,0,2.611-0.995,2.917-2.326l5.867-2.667C24.333,11.613,25.118,12,26,12c1.657,0,3-1.343,3-3c0-0.082-0.018-0.159-0.024-0.24
			l6.756-2.815C36.283,6.586,37.089,7,38,7c1.395,0,2.555-0.954,2.891-2.241l6.379-0.532C47.738,5.271,48.781,6,50,6
			c1.657,0,3-1.343,3-3s-1.343-3-3-3c-1.395,0-2.555,0.954-2.893,2.241L40.73,2.772C40.262,1.729,39.219,1,38,1
			c-1.657,0-3,1.343-3,3c0,0.051,0.014,0.098,0.016,0.147l-6.958,2.677C27.519,6.317,26.798,6,26,6c-1.586,0-2.87,1.234-2.979,2.792
			l-5.73,2.292C16.74,10.427,15.924,10,15,10c-0.849,0-1.611,0.355-2.157,0.921L5.952,7.476C5.977,7.32,6,7.164,6,7
			c0-1.657-1.343-3-3-3S0,5.343,0,7S1.343,10,3,10z M48,31l1.107-9.969C48.904,21.02,48.705,21,48.5,21c-5.247,0-9.5,4.254-9.5,9.5
			s4.253,9.5,9.5,9.5s9.5-4.254,9.5-9.5c0-0.576-0.061-1.139-0.158-1.688L48,31z M28,14h-3c-1.104,0-2,0.896-2,2v20h7V16
			C30,14.896,29.104,14,28,14z M42,20.267V11c0-1.104-0.896-2-2-2h-3c-1.104,0-2,0.896-2,2v25h3.618C37.596,34.234,37,32.189,37,30
			C37,25.988,38.977,22.445,42,20.267z M50,29l9-2c-1.979-6.283-8-7-8-7L50,29z"/>
	</g>
</g>
</svg>
