<?xml version="1.0" encoding="utf-8"?>
<!-- Generated by IcoMoon.io -->
<!DOCTYPE svg PUBLIC "-//W3C//DTD SVG 1.1//EN" "http://www.w3.org/Graphics/SVG/1.1/DTD/svg11.dtd">
<svg version="1.1" xmlns="http://www.w3.org/2000/svg" xmlns:xlink="http://www.w3.org/1999/xlink" width="32" height="32" viewBox="0 0 32 32">
<path fill="#444444" d="M6.748 13.712l3.91-1.383v-8.879h-3.91v10.262zM17.461 13.712l3.912-1.383v-8.879h-3.912v10.262zM1.972 31.995h28.056v-9.563h-28.056v9.563zM15.409 23.906h3.010v4.825h-3.010v-4.825zM10.091 23.906h3.011v4.825h-3.011v-4.825zM4.573 23.906h3.009v4.825h-3.009v-4.825zM23.403 16.771l-0.768-3.906-9.753 3.906-1.168-3.906-9.743 3.906v4.163h28.056v-4.163h-6.625zM4.98 2.813c0.491-0.092 0.869-0.369 1.169-0.671 0.312-0.306 0.551-0.613 0.907-0.796 0.337-0.19 0.767-0.244 1.044-0.188 0.265 0.046 0.436 0.161 0.632 0.465 0.185 0.29 0.319 0.659 0.483 1.046h0.079c0.14-0.416 0.146-0.858 0.004-1.305-0.074-0.224-0.203-0.452-0.417-0.633-0.21-0.185-0.521-0.274-0.78-0.243-0.536 0.066-0.852 0.404-1.186 0.638-0.329 0.239-0.671 0.499-1.017 0.654-0.356 0.153-0.711 0.259-1.020 0.279-0.314 0.007-0.56-0.094-0.804-0.281-0.505-0.377-0.909-1.071-1.336-1.774l-0.079 0.015c-0.054 0.843 0.149 1.742 0.877 2.425 0.371 0.332 0.959 0.483 1.443 0.368zM17.088 2.881c0.37-0.076 0.632-0.291 0.839-0.529 0.201-0.227 0.367-0.452 0.612-0.571 0.236-0.127 0.551-0.118 0.705-0.063 0.138 0.051 0.204 0.070 0.352 0.26 0.134 0.178 0.251 0.423 0.411 0.688h0.080c0.144-0.293 0.166-0.611 0.077-0.946-0.050-0.166-0.146-0.342-0.309-0.484-0.162-0.148-0.411-0.214-0.609-0.187-0.411 0.064-0.616 0.341-0.846 0.512-0.228 0.179-0.473 0.339-0.726 0.433-0.25 0.078-0.498 0.132-0.685 0.133-0.192-0.010-0.312-0.074-0.462-0.181-0.317-0.216-0.629-0.666-0.999-1.134l-0.079 0.016c-0.111 0.607 0 1.262 0.538 1.785 0.281 0.253 0.736 0.366 1.101 0.268z"></path>
</svg>
