<?xml version="1.0" encoding="utf-8"?>
<!-- Generator: Adobe Illustrator 16.0.0, SVG Export Plug-In . SVG Version: 6.00 Build 0)  -->
<!DOCTYPE svg PUBLIC "-//W3C//DTD SVG 1.1//EN" "http://www.w3.org/Graphics/SVG/1.1/DTD/svg11.dtd">
<svg version="1.1" id="Layer_1" xmlns="http://www.w3.org/2000/svg" xmlns:xlink="http://www.w3.org/1999/xlink" x="0px" y="0px"
	 width="64px" height="73px" viewBox="0 0 64 73" enable-background="new 0 0 64 73" xml:space="preserve">
<g>
	<g>
		<path fill="#50C2C9" d="M10.893,31.281l8.92-3.156V7.87h-8.92V31.281z M35.333,31.281l8.924-3.156V7.87h-8.924V31.281z
			 M-0.001,72.988h64.002V51.173H-0.001V72.988z M30.652,54.535h6.867v11.008h-6.867V54.535z M18.521,54.535h6.868v11.008h-6.868
			V54.535z M5.933,54.535h6.865v11.008H5.933V54.535z M48.888,38.26l-1.751-8.911L24.889,38.26l-2.664-8.911L-0.001,38.26v9.498
			h64.002V38.26H48.888z M6.861,6.417c1.12-0.211,1.983-0.842,2.667-1.53c0.711-0.699,1.256-1.398,2.068-1.817
			c0.769-0.433,1.749-0.556,2.382-0.429c0.604,0.105,0.994,0.368,1.442,1.06c0.422,0.661,0.728,1.503,1.102,2.387h0.181
			c0.32-0.949,0.333-1.958,0.01-2.976c-0.169-0.51-0.462-1.03-0.952-1.443c-0.48-0.423-1.188-0.624-1.779-0.554
			c-1.223,0.15-1.943,0.922-2.706,1.455c-0.75,0.546-1.53,1.139-2.319,1.493C8.144,4.413,7.334,4.654,6.63,4.699
			C5.913,4.716,5.352,4.484,4.796,4.059C3.644,3.2,2.722,1.615,1.749,0.012l-0.18,0.034c-0.123,1.923,0.339,3.974,2,5.532
			C4.416,6.335,5.756,6.68,6.861,6.417z M34.482,6.573c0.844-0.173,1.442-0.664,1.913-1.207c0.459-0.518,0.838-1.032,1.396-1.302
			c0.539-0.29,1.256-0.269,1.608-0.143c0.315,0.117,0.465,0.16,0.804,0.592c0.306,0.406,0.572,0.966,0.938,1.57h0.183
			c0.329-0.669,0.378-1.395,0.176-2.159c-0.113-0.378-0.332-0.781-0.704-1.104c-0.369-0.337-0.938-0.488-1.389-0.426
			c-0.938,0.146-1.405,0.779-1.931,1.168c-0.521,0.409-1.08,0.773-1.657,0.988c-0.571,0.177-1.137,0.3-1.562,0.303
			c-0.438-0.023-0.711-0.169-1.054-0.413c-0.724-0.492-1.435-1.52-2.279-2.586l-0.181,0.037c-0.254,1.385,0,2.878,1.228,4.071
			C32.612,6.54,33.651,6.796,34.482,6.573z"/>
	</g>
</g>
</svg>
