<?xml version="1.0" encoding="utf-8"?>
<!-- Generator: Adobe Illustrator 16.0.0, SVG Export Plug-In . SVG Version: 6.00 Build 0)  -->
<!DOCTYPE svg PUBLIC "-//W3C//DTD SVG 1.1//EN" "http://www.w3.org/Graphics/SVG/1.1/DTD/svg11.dtd">
<svg version="1.1" id="Layer_1" xmlns="http://www.w3.org/2000/svg" xmlns:xlink="http://www.w3.org/1999/xlink" x="0px" y="0px"
	 width="131px" height="131px" viewBox="0 0 131 131" enable-background="new 0 0 131 131" xml:space="preserve">
<g>
	<g>
		<path fill="#50C2C9" d="M65.5,0C29.325,0,0,29.325,0,65.5S29.325,131,65.5,131c36.174,0,65.5-29.325,65.5-65.5S101.674,0,65.5,0z
			 M93.135,67.667c-7.259,3.9-7.95-3.203-7.95-3.203c-5.998-0.688-10.471-7.372-10.471-7.372
			c-8.093,4.173-3.582,15.938-0.095,20.451c1.26,1.624,1.896,3.524,2.17,5.423h5.553v8.055h7.703v9.991H37.01v-9.991h7.714v-8.055
			h6.357c-1.052-1.029-2.028-2.165-2.882-3.428c-8.509-12.524-2.5-22.297-2.5-22.297c-1.402-0.415-5.865,2.503-5.865,2.503
			c2.511-9.171,16.328-16.959,16.328-16.959c-1.535-0.567-5.865,0.547-5.865,0.547c11.305-10.84,25.119-6.808,25.119-6.808
			c0.417-2.372,7.259-6.534,7.259-6.534c-0.701,0.688-0.986,4.445-0.986,4.445c0.701-1.246,2.938-2.503,2.938-2.503
			c-1.26,2.918,0,9.169,0,9.169c3.629,3.617,7.666,16.14,7.666,16.14l1.545,2.22C95.787,62.245,95.067,66.629,93.135,67.667z"/>
	</g>
</g>
</svg>
