<?xml version="1.0" encoding="utf-8"?>
<!-- Generated by IcoMoon.io -->
<!DOCTYPE svg PUBLIC "-//W3C//DTD SVG 1.1//EN" "http://www.w3.org/Graphics/SVG/1.1/DTD/svg11.dtd">
<svg version="1.1" xmlns="http://www.w3.org/2000/svg" xmlns:xlink="http://www.w3.org/1999/xlink" width="32" height="32" viewBox="0 0 32 32">
<path fill="#444444" d="M28 12.667c0 0-0.559-1.099-1.333-0.333l-1 1-7-6.667c0 0 0.368-1.398 1-1.667 0 0 0.736-0.529-0.333-1 0 0-0.445-0.564-1-0.333 0 0-4.101 4.484-3.333 10.333 0 0-6.818-0.901-11 4 0 0-0.468 0.91 0.333 1.333 0 0 0.895 0.64 1.333 0l1-1 7 7-1 1c0 0-0.789 0.644 0 1.333 0 0 0.833 1.067 1.667 0 0 0 4.909-3.483 3.333-10.667 0 0 6.107 1.256 10.333-3.333 0 0 0.582-0.554 0-1zM14.667 24l-6.667-6.667c0.554-0.898 1.667-1 1.667-1l6 6c-0.424 1.652-1 1.667-1 1.667zM16 20l-4-4c0 0 2.225-0.363 3.667 0.333 0 0 0.982 2.106 0.333 3.667zM17 15c-0.617-1.844-0.333-3-0.333-3l3.667 3.333c-1.685 0.107-3.333-0.333-3.333-0.333zM22 15l-4.667-5c-0.098-1.065 0.333-2 0.333-2l6.333 6.333c-0.875 0.679-2 0.667-2 0.667zM16 0c-8.837 0-16 7.163-16 16s7.163 16 16 16 16-7.163 16-16-7.163-16-16-16zM16 30c-7.732 0-14-6.268-14-14s6.268-14 14-14c7.732 0 14 6.268 14 14s-6.268 14-14 14z"></path>
</svg>
