<?xml version="1.0" encoding="utf-8"?>
<!-- Generator: Adobe Illustrator 16.0.0, SVG Export Plug-In . SVG Version: 6.00 Build 0)  -->
<!DOCTYPE svg PUBLIC "-//W3C//DTD SVG 1.1//EN" "http://www.w3.org/Graphics/SVG/1.1/DTD/svg11.dtd">
<svg version="1.1" id="Layer_1" xmlns="http://www.w3.org/2000/svg" xmlns:xlink="http://www.w3.org/1999/xlink" x="0px" y="0px"
	 width="43px" height="45px" viewBox="0 0 43 45" enable-background="new 0 0 43 45" xml:space="preserve">
<g>
	<g>
		<path fill-rule="evenodd" clip-rule="evenodd" fill="#50C2C9" d="M26.959,27.991v-11h-3v11H26.959z M18.959,27.991v-9h-3v9H18.959
			z M30.959,11.991l5-5c0,0-6.244-7.014-15-6c0,0-7.049-0.215-14,6l5,5C11.959,11.991,20.848,2.269,30.959,11.991z M32.959,6.992
			l-2,2c0,0-9.186-6.834-19,0l-2-2C9.959,6.992,19.45-2.252,32.959,6.992z M36.959,7.992l-4,5c0,0,2.305,3.143,3,9h7
			C42.959,21.992,43.069,11.605,36.959,7.992z M22.959,16.992h-3v11h3V16.992z M11.959,27.991h3v-6l-3,0V27.991z M7.959,26.991
			c-2.215-8.014,3-14,3-14l-6-5c-7.781,11.356-4,21-4,21c5.435,15.297,19,15,19,15v-7C10.117,35.333,7.959,26.991,7.959,26.991z
			 M35.61,23.887c-0.592,13.958-13.683,13.183-13.683,13.183l-0.16,7.039c9.281-0.385,14.21-5.43,14.21-5.43
			c7.003-5.352,6.673-14.691,6.673-14.691L35.61,23.887z M23.928,42.028l0.064-2.816c11.771-1.93,13.682-13.184,13.682-13.184
			l2.816,0.041C37.122,42.042,23.928,42.028,23.928,42.028z M30.959,27.991v-11h-3v11H30.959z"/>
	</g>
</g>
</svg>
