<?xml version="1.0" encoding="utf-8"?>
<!-- Generator: Adobe Illustrator 16.0.4, SVG Export Plug-In . SVG Version: 6.00 Build 0)  -->
<!DOCTYPE svg PUBLIC "-//W3C//DTD SVG 1.0//EN" "http://www.w3.org/TR/2001/REC-SVG-20010904/DTD/svg10.dtd">
<svg version="1.0" id="Layer_1" xmlns="http://www.w3.org/2000/svg" xmlns:xlink="http://www.w3.org/1999/xlink" x="0px" y="0px"
	 width="200px" height="200px" viewBox="0 0 200 200" enable-background="new 0 0 200 200" xml:space="preserve">
<path d="M142.3,77.628c-15.484,0-28.727,9.771-33.892,23.471l-33.531-7.456c1.492-3.41,2.322-7.173,2.322-11.127
	c0-4.311-0.984-8.395-2.739-12.041l28.742-15.004c3.041,2.078,6.677,3.231,10.49,3.231c10.262,0,18.609-8.345,18.609-18.603
	c0-10.26-8.348-18.606-18.609-18.606c-10.26,0-18.605,8.347-18.605,18.606c0,3.035,0.738,5.999,2.146,8.667L69.458,63.266
	c-5.074-5.299-12.214-8.604-20.111-8.604c-15.358,0-27.854,12.495-27.854,27.854s12.495,27.854,27.854,27.854
	c8.064,0,15.338-3.447,20.43-8.943l36.571,8.132c-0.166,1.403-0.254,2.83-0.254,4.277c0,6.245,1.589,12.125,4.385,17.259
	l-26.456,14.489c-3.764-5.063-9.789-8.351-16.57-8.351c-11.379,0-20.637,9.258-20.637,20.637c0,11.38,9.258,20.638,20.637,20.638
	c11.381,0,20.639-9.258,20.639-20.638c0-1.486-0.162-2.937-0.463-4.335l27.942-15.304c6.626,7.253,16.155,11.811,26.729,11.811
	c19.965,0,36.207-16.242,36.207-36.206C178.507,93.87,162.265,77.628,142.3,77.628z M113.692,30.198
	c5.462,0,9.904,4.441,9.904,9.901c0,5.457-4.442,9.897-9.904,9.897c-2.517,0-4.888-0.942-6.69-2.599
	c-0.147-0.166-0.303-0.322-0.47-0.463c-0.417-0.437-0.797-0.915-1.135-1.432c-1.051-1.613-1.605-3.482-1.605-5.404
	C103.792,34.64,108.233,30.198,113.692,30.198z M49.347,101.664c-10.559,0-19.148-8.59-19.148-19.148s8.59-19.148,19.148-19.148
	c10.558,0,19.147,8.59,19.147,19.148S59.904,101.664,49.347,101.664z M67.452,169.802c-6.579,0-11.932-5.353-11.932-11.933
	c0-6.579,5.353-11.932,11.932-11.932c6.58,0,11.934,5.353,11.934,11.932C79.386,164.449,74.032,169.802,67.452,169.802z
	 M142.3,141.336c-15.164,0-27.501-12.337-27.501-27.501c0-15.165,12.337-27.502,27.501-27.502c15.165,0,27.502,12.337,27.502,27.502
	C169.802,128.999,157.465,141.336,142.3,141.336z"/>
</svg>
