<?xml version="1.0" encoding="utf-8"?>
<!-- Generator: Adobe Illustrator 16.0.0, SVG Export Plug-In . SVG Version: 6.00 Build 0)  -->
<!DOCTYPE svg PUBLIC "-//W3C//DTD SVG 1.1//EN" "http://www.w3.org/Graphics/SVG/1.1/DTD/svg11.dtd">
<svg version="1.1" id="Layer_1" xmlns="http://www.w3.org/2000/svg" xmlns:xlink="http://www.w3.org/1999/xlink" x="0px" y="0px"
	 width="600px" height="600px" viewBox="0 0 600 600" enable-background="new 0 0 600 600" xml:space="preserve">
<g>
	<path fill="#50C2C9" d="M532.905,210.787l-61.55-111.643c-2.766-5.597-9.168-9.346-16.651-11.054
		c-0.178-0.053-0.283-0.173-0.499-0.207c-0.385-0.096-0.797-0.029-1.195-0.12c-2.236-0.398-4.431-0.658-6.787-0.634
		c-2.343-0.024-4.564,0.24-6.786,0.634c-0.413,0.091-0.803,0.024-1.205,0.12c-0.201,0.034-0.326,0.153-0.51,0.207
		c-7.482,1.718-13.882,5.472-16.617,11.054L375.95,340.882l-50.563-139.901c-2.765-5.592-9.195-9.355-16.685-11.069
		c-0.163-0.039-0.293-0.144-0.461-0.183c-0.384-0.096-0.72-0.024-1.113-0.105c-2.241-0.408-4.487-0.687-6.859-0.643
		c-2.395-0.039-4.617,0.235-6.883,0.643c-0.37,0.082-0.763,0.01-1.128,0.105c-0.188,0.039-0.293,0.144-0.471,0.197
		c-7.483,1.714-13.901,5.462-16.661,11.055l-49.704,125.347l-51.682-40.387c-0.413-0.327-1.003-0.446-1.435-0.749
		c-0.302-0.211-0.422-0.485-0.739-0.682c-0.802-0.499-1.833-0.677-2.683-1.099c-1.661-0.802-3.254-1.574-5.093-2.093
		c-1.464-0.408-2.933-0.562-4.459-0.777c-1.699-0.235-3.36-0.5-5.083-0.485c-1.738-0.02-3.37,0.25-5.064,0.485
		c-1.531,0.216-3,0.369-4.459,0.777c-1.833,0.514-3.441,1.291-5.093,2.093c-0.874,0.422-1.872,0.595-2.673,1.099
		c-0.332,0.197-0.466,0.485-0.739,0.682c-0.466,0.303-1.022,0.432-1.445,0.749l-62.481,65.131
		c-9.615,7.496-8.669,18.984,2.088,25.656c10.747,6.715,27.207,6.07,36.777-1.432l45.878-47.779l61.167,47.779
		c9.581,7.497,26.055,8.146,36.797,1.432c1.118-0.683,1.642-1.57,2.534-2.354c0.072-0.038,0.096-0.102,0.178-0.158
		c1.728-1.521,3.173-3.076,4.095-4.857c0.278-0.445,0.801-0.758,1.056-1.238l36.298-91.516l59.352,164.27
		c2.761,5.588,9.174,9.326,16.646,11.05c0.183,0.059,0.316,0.158,0.509,0.211c0.408,0.098,0.826,0.024,1.233,0.115
		c2.231,0.395,4.426,0.658,6.772,0.624c2.323,0.034,4.502-0.23,6.739-0.624c0.422-0.096,0.83-0.022,1.219-0.115
		c0.216-0.053,0.341-0.152,0.543-0.211c7.444-1.719,13.862-5.472,16.617-11.05l49.378-264.398l25.449,46.152
		c4.68,9.489,19.512,14.529,33.147,11.266C530.381,230.645,537.619,220.291,532.905,210.787z"/>
</g>
</svg>
