<?xml version="1.0" encoding="utf-8"?>
<!-- Generator: Adobe Illustrator 16.0.4, SVG Export Plug-In . SVG Version: 6.00 Build 0)  -->
<!DOCTYPE svg PUBLIC "-//W3C//DTD SVG 1.0//EN" "http://www.w3.org/TR/2001/REC-SVG-20010904/DTD/svg10.dtd">
<svg version="1.0" id="Layer_1" xmlns="http://www.w3.org/2000/svg" xmlns:xlink="http://www.w3.org/1999/xlink" x="0px" y="0px"
	 width="208.667px" height="103.738px" viewBox="0 0 208.667 103.738" enable-background="new 0 0 208.667 103.738"
	 xml:space="preserve">
<g>
	<g>
		<polygon fill="#164476" points="40.361,58.988 51.933,52.255 40.364,45.53 40.358,45.533 40.358,52.265 40.361,52.265 		"/>
		<polygon fill="#164476" points="63.687,45.544 63.687,59.003 63.614,59.047 75.341,65.731 75.341,65.731 75.341,38.812 
			75.341,38.812 63.596,45.492 		"/>
		<polygon fill="#E6E6E6" points="52.032,65.734 52.032,79.195 75.341,65.731 63.614,59.047 		"/>
		<polygon fill="#164476" points="75.341,38.812 90.627,29.991 52.032,7.706 52.032,25.354 		"/>
		<polygon fill="#11264A" points="52.032,25.354 52.032,7.706 13.526,29.937 28.761,38.79 		"/>
		<polygon fill="#164476" points="28.72,65.731 28.72,52.275 28.72,38.812 28.761,38.79 13.526,29.937 13.435,29.991 13.435,74.558 
			13.502,74.593 28.72,65.781 		"/>
		<polygon fill="#11264A" points="13.497,74.597 28.72,83.382 28.72,65.781 		"/>
		<polygon fill="#164476" points="52.032,79.195 52.032,96.84 90.61,74.585 75.341,65.731 		"/>
		<polygon fill="#11264A" points="40.376,72.462 40.376,90.111 52.032,96.84 52.032,79.195 		"/>
		<polygon fill="#11264A" points="90.627,29.991 90.627,29.991 75.341,38.812 75.341,38.812 75.341,65.731 75.341,65.731 
			90.627,74.558 90.627,74.558 		"/>
		<polygon fill="#FFFFFF" stroke="#231F20" stroke-linejoin="round" stroke-miterlimit="10" points="28.72,65.781 28.763,65.757 
			28.72,65.731 		"/>
		<polygon fill="#E6E6E6" points="28.763,65.757 28.72,65.781 28.72,83.382 40.376,90.111 40.376,72.462 		"/>
		<polygon fill="#E6E6E6" points="40.374,59.003 40.374,59 28.763,65.757 40.376,72.462 40.376,59.003 		"/>
		<polygon fill="#E6E6E6" points="52.032,38.812 63.596,45.492 75.341,38.812 52.032,25.354 		"/>
		<polygon fill="#E6E6E6" points="52.032,38.812 52.032,25.354 28.761,38.79 40.379,45.541 		"/>
		<polygon fill="#11264A" points="28.76,38.791 28.72,38.813 28.72,52.275 28.72,65.731 28.762,65.758 40.373,59.001 40.373,52.275 
			40.373,45.545 40.377,45.541 		"/>
		<polygon fill="#D0D1D2" points="40.377,59.025 40.377,72.484 52.033,79.217 52.033,65.756 		"/>
		<polygon fill="#D0D1D2" points="52.033,25.327 52.033,38.787 63.687,45.518 63.687,32.072 		"/>
		<polygon fill="#FFFFFF" stroke="#231F20" stroke-linejoin="round" stroke-miterlimit="10" points="52.032,52.219 51.948,52.266 
			52.032,52.314 		"/>
		<polygon fill="#FFFFFF" points="51.948,52.266 52.032,52.219 52.032,38.812 40.379,45.541 		"/>
		<polygon fill="#FFFFFF" points="52.032,65.734 63.614,59.047 52.032,52.314 		"/>
		<polygon fill="#11264A" points="51.904,52.275 40.333,59.006 40.333,59.009 51.988,65.74 51.988,52.322 		"/>
		<polygon fill="#164476" points="63.687,45.457 52.032,38.812 52.032,52.219 		"/>
		<polygon fill="#11264A" points="52.032,52.314 63.614,59.047 63.687,59.003 63.687,45.544 63.596,45.492 52.032,52.219 		"/>
		<polygon fill="#4FC2CB" points="63.614,59.047 52.032,65.734 40.379,45.541 52.032,38.812 		"/>
	</g>
</g>
<g>
	<path fill="#FFFFFF" d="M110.431,27.641v6.129h-3.34V16.707h5.93c1.703,0,3.047,0.503,4.031,1.51s1.477,2.326,1.477,3.957
		c0,1.639-0.494,2.96-1.482,3.963s-2.33,1.504-4.025,1.504H110.431z M110.431,24.98h2.59c0.711,0,1.254-0.262,1.629-0.787
		c0.375-0.524,0.562-1.189,0.562-1.996c0-0.814-0.186-1.489-0.557-2.025s-0.916-0.805-1.635-0.805h-2.59V24.98z"/>
	<path fill="#FFFFFF" d="M126.497,33.77c-0.094-0.211-0.178-0.441-0.252-0.691s-0.131-0.504-0.17-0.762
		c-0.312,0.516-0.693,0.928-1.143,1.236s-0.971,0.463-1.564,0.463c-1.047,0-1.885-0.344-2.514-1.031s-0.943-1.605-0.943-2.754
		c0-1.242,0.4-2.207,1.201-2.895s1.99-1.031,3.568-1.031h1.254v-1.031c0-0.617-0.111-1.092-0.334-1.424s-0.557-0.498-1.002-0.498
		c-0.375,0-0.656,0.133-0.844,0.398s-0.281,0.652-0.281,1.16l-3.223-0.012l-0.035-0.07c-0.039-1.102,0.369-2.039,1.225-2.812
		s1.982-1.16,3.381-1.16c1.32,0,2.393,0.385,3.217,1.154s1.236,1.865,1.236,3.287v5.133c0,0.625,0.043,1.207,0.129,1.746
		s0.219,1.07,0.398,1.594H126.497z M124.329,31.508c0.336,0,0.646-0.09,0.932-0.27s0.51-0.41,0.674-0.691v-2.332h-1.254
		c-0.508,0-0.875,0.176-1.102,0.527s-0.34,0.797-0.34,1.336c0,0.422,0.098,0.766,0.293,1.031S123.993,31.508,124.329,31.508z"/>
	<path fill="#FFFFFF" d="M136.013,31.355c0.453,0,0.795-0.168,1.025-0.504s0.346-0.82,0.346-1.453h3.023l0.035,0.07
		c0.023,1.328-0.385,2.418-1.225,3.27s-1.908,1.277-3.205,1.277c-1.641,0-2.9-0.535-3.779-1.605s-1.318-2.453-1.318-4.148v-1.629
		c0-1.688,0.438-3.072,1.312-4.154s2.129-1.623,3.762-1.623c1.375,0,2.467,0.441,3.275,1.324s1.201,2.074,1.178,3.574l-0.023,0.059
		h-3.035c0-0.691-0.115-1.246-0.346-1.667c-0.23-0.42-0.58-0.63-1.049-0.63c-0.664,0-1.121,0.282-1.371,0.845
		c-0.25,0.563-0.375,1.318-0.375,2.266v1.631c0,0.971,0.125,1.729,0.375,2.277S135.333,31.355,136.013,31.355z"/>
	<path fill="#FFFFFF" d="M145.528,18.031H142.2v-2.543h3.328V18.031z M145.528,33.77H142.2V21.09h3.328V33.77z"/>
	<path fill="#FFFFFF" d="M148.54,33.77V23.504h-1.559V21.09h1.559v-0.82c0-1.617,0.438-2.859,1.312-3.727s2.109-1.301,3.703-1.301
		c0.547,0,1.088,0.059,1.623,0.176s1.135,0.289,1.799,0.516l-0.469,2.719c-0.508-0.172-0.959-0.305-1.354-0.398
		s-0.857-0.141-1.389-0.141c-0.625,0-1.098,0.184-1.418,0.551s-0.48,0.902-0.48,1.605v0.82h2.027v2.414h-2.027V33.77H148.54z
		 M158.501,33.77h-3.34V21.09h3.34V33.77z"/>
	<path fill="#FFFFFF" d="M165.45,31.355c0.453,0,0.795-0.168,1.025-0.504s0.346-0.82,0.346-1.453h3.023l0.035,0.07
		c0.023,1.328-0.385,2.418-1.225,3.27s-1.908,1.277-3.205,1.277c-1.641,0-2.9-0.535-3.779-1.605s-1.318-2.453-1.318-4.148v-1.629
		c0-1.688,0.438-3.072,1.312-4.154s2.129-1.623,3.762-1.623c1.375,0,2.467,0.441,3.275,1.324s1.201,2.074,1.178,3.574l-0.023,0.059
		h-3.035c0-0.691-0.115-1.246-0.346-1.667c-0.23-0.42-0.58-0.63-1.049-0.63c-0.664,0-1.121,0.282-1.371,0.845
		c-0.25,0.563-0.375,1.318-0.375,2.266v1.631c0,0.971,0.125,1.729,0.375,2.277S164.771,31.355,165.45,31.355z"/>
	<path fill="#FFFFFF" d="M118.587,52.641c0,2-0.543,3.562-1.629,4.688s-2.531,1.688-4.336,1.688s-3.246-0.562-4.324-1.688
		s-1.617-2.688-1.617-4.688v-4.781c0-1.992,0.539-3.557,1.617-4.693s2.516-1.705,4.312-1.705s3.242,0.568,4.336,1.705
		s1.641,2.701,1.641,4.693V52.641z M115.271,47.823c0-1.223-0.227-2.145-0.68-2.768s-1.113-0.935-1.98-0.935
		c-0.875,0-1.531,0.31-1.969,0.929s-0.656,1.543-0.656,2.773v4.818c0,1.238,0.223,2.167,0.668,2.785
		c0.445,0.619,1.102,0.929,1.969,0.929c0.859,0,1.516-0.31,1.969-0.929c0.453-0.618,0.68-1.547,0.68-2.785V47.823z"/>
	<path fill="#FFFFFF" d="M126.532,49.125l-1.254-0.035c-0.352,0-0.643,0.086-0.873,0.258s-0.408,0.414-0.533,0.727v8.695h-3.328
		V46.09h3.105l0.129,1.699l0.059,0.023c0.203-0.609,0.486-1.088,0.85-1.436s0.787-0.521,1.271-0.521
		c0.148,0,0.307,0.014,0.475,0.041s0.314,0.061,0.439,0.1L126.532,49.125z"/>
	<path fill="#FFFFFF" d="M131.7,43.031h-3.328v-2.543h3.328V43.031z M131.7,58.77h-3.328V46.09h3.328V58.77z"/>
	<path fill="#FFFFFF" d="M133.575,51.844c0-1.789,0.369-3.234,1.107-4.336s1.779-1.652,3.123-1.652c0.562,0,1.059,0.143,1.488,0.428
		s0.805,0.693,1.125,1.225l0.211-1.418h2.895v12.434c0,1.664-0.482,2.975-1.447,3.932s-2.287,1.436-3.967,1.436
		c-0.547,0-1.129-0.088-1.746-0.264s-1.191-0.412-1.723-0.709l0.586-2.566c0.445,0.25,0.898,0.438,1.359,0.562
		s0.961,0.188,1.5,0.188c0.703,0,1.23-0.221,1.582-0.662s0.527-1.084,0.527-1.928v-0.727c-0.312,0.406-0.668,0.713-1.066,0.92
		s-0.848,0.311-1.348,0.311c-1.336,0-2.371-0.514-3.105-1.541s-1.102-2.385-1.102-4.072V51.844z M136.903,53.41
		c0,0.923,0.133,1.645,0.398,2.165s0.711,0.78,1.336,0.78c0.344,0,0.646-0.07,0.908-0.211s0.479-0.349,0.65-0.622v-6.009
		c-0.172-0.313-0.385-0.556-0.639-0.729c-0.254-0.172-0.553-0.258-0.896-0.258c-0.625,0-1.074,0.303-1.348,0.91
		c-0.273,0.605-0.41,1.41-0.41,2.411V53.41z"/>
	<path fill="#FFFFFF" d="M149.149,43.031h-3.328v-2.543h3.328V43.031z M149.149,58.77h-3.328V46.09h3.328V58.77z"/>
	<path fill="#FFFFFF" d="M154.517,46.09l0.141,1.746c0.352-0.625,0.783-1.111,1.295-1.459s1.076-0.521,1.693-0.521
		c1.055,0,1.885,0.406,2.49,1.219s0.908,2.09,0.908,3.832v7.863h-3.34v-7.872c0-0.876-0.123-1.492-0.369-1.848
		c-0.246-0.356-0.627-0.534-1.143-0.534c-0.297,0-0.57,0.078-0.82,0.234s-0.461,0.372-0.633,0.646v9.374h-3.328V46.09H154.517z"/>
	<path fill="#FFFFFF" d="M114.673,79.316c0-0.664-0.172-1.189-0.516-1.576s-0.949-0.768-1.816-1.143
		c-1.773-0.617-3.104-1.318-3.99-2.104s-1.33-1.885-1.33-3.299c0-1.398,0.516-2.537,1.547-3.416s2.348-1.318,3.949-1.318
		c1.625,0,2.945,0.49,3.961,1.471s1.508,2.217,1.477,3.709l-0.023,0.07h-3.234c0-0.781-0.195-1.414-0.586-1.898
		s-0.941-0.727-1.652-0.727c-0.664,0-1.182,0.201-1.553,0.604s-0.557,0.908-0.557,1.518c0,0.562,0.207,1.025,0.621,1.389
		s1.133,0.768,2.156,1.213c1.617,0.547,2.834,1.24,3.65,2.08s1.225,1.975,1.225,3.404c0,1.477-0.492,2.633-1.477,3.469
		s-2.293,1.254-3.926,1.254c-1.625,0-3.033-0.475-4.225-1.424s-1.768-2.311-1.729-4.084l0.023-0.07h3.246
		c0,1.055,0.223,1.812,0.668,2.273s1.117,0.691,2.016,0.691c0.703,0,1.225-0.188,1.564-0.562S114.673,79.957,114.673,79.316z"/>
	<path fill="#FFFFFF" d="M119.478,76.656c0-1.703,0.451-3.096,1.354-4.178s2.166-1.623,3.791-1.623s2.891,0.541,3.797,1.623
		s1.359,2.475,1.359,4.178v1.57c0,1.719-0.453,3.113-1.359,4.184s-2.168,1.605-3.785,1.605c-1.633,0-2.9-0.535-3.803-1.605
		s-1.354-2.465-1.354-4.184V76.656z M122.794,78.222c0,0.979,0.137,1.745,0.41,2.301s0.75,0.833,1.43,0.833
		c0.656,0,1.123-0.279,1.4-0.839s0.416-1.324,0.416-2.295v-1.572c0-0.955-0.139-1.716-0.416-2.283s-0.748-0.851-1.412-0.851
		s-1.135,0.285-1.412,0.856s-0.416,1.331-0.416,2.277V78.222z"/>
	<path fill="#FFFFFF" d="M135.017,83.77h-3.328V65.488h3.328V83.77z"/>
	<path fill="#FFFFFF" d="M143.771,82.305c-0.344,0.555-0.76,0.979-1.248,1.271s-1.041,0.439-1.658,0.439
		c-1.133,0-2.018-0.428-2.654-1.283s-0.955-2.182-0.955-3.979V71.09h3.328v7.696c0,0.899,0.109,1.553,0.328,1.959
		c0.219,0.407,0.543,0.61,0.973,0.61c0.367,0,0.689-0.068,0.967-0.205s0.514-0.339,0.709-0.604V71.09h3.34v12.68h-2.93
		L143.771,82.305z"/>
	<path fill="#FFFFFF" d="M152.958,67.938v3.152h1.758v2.414h-1.758v6.363c0,0.516,0.074,0.885,0.223,1.107s0.352,0.334,0.609,0.334
		c0.203,0,0.375-0.01,0.516-0.029s0.297-0.053,0.469-0.1l0.258,2.531c-0.352,0.109-0.688,0.188-1.008,0.234s-0.684,0.07-1.09,0.07
		c-1.07,0-1.889-0.33-2.455-0.99s-0.85-1.709-0.85-3.146v-6.375h-1.5V71.09h1.5v-3.152H152.958z"/>
	<path fill="#FFFFFF" d="M160.071,68.031h-3.328v-2.543h3.328V68.031z M160.071,83.77h-3.328V71.09h3.328V83.77z"/>
	<path fill="#FFFFFF" d="M161.993,76.656c0-1.703,0.451-3.096,1.354-4.178s2.166-1.623,3.791-1.623s2.891,0.541,3.797,1.623
		s1.359,2.475,1.359,4.178v1.57c0,1.719-0.453,3.113-1.359,4.184s-2.168,1.605-3.785,1.605c-1.633,0-2.9-0.535-3.803-1.605
		s-1.354-2.465-1.354-4.184V76.656z M165.31,78.222c0,0.979,0.137,1.745,0.41,2.301s0.75,0.833,1.43,0.833
		c0.656,0,1.123-0.279,1.4-0.839s0.416-1.324,0.416-2.295v-1.572c0-0.955-0.139-1.716-0.416-2.283s-0.748-0.851-1.412-0.851
		s-1.135,0.285-1.412,0.856s-0.416,1.331-0.416,2.277V78.222z"/>
	<path fill="#FFFFFF" d="M177.099,71.09l0.141,1.746c0.352-0.625,0.783-1.111,1.295-1.459s1.076-0.521,1.693-0.521
		c1.055,0,1.885,0.406,2.49,1.219s0.908,2.09,0.908,3.832v7.863h-3.34v-7.872c0-0.876-0.123-1.492-0.369-1.848
		c-0.246-0.356-0.627-0.534-1.143-0.534c-0.297,0-0.57,0.078-0.82,0.234s-0.461,0.372-0.633,0.646v9.374h-3.328V71.09H177.099z"/>
	<path fill="#FFFFFF" d="M191.231,80.453c0-0.359-0.141-0.67-0.422-0.932s-0.82-0.584-1.617-0.967
		c-1.273-0.477-2.229-1.016-2.865-1.617s-0.955-1.383-0.955-2.344c0-1.031,0.408-1.912,1.225-2.643s1.896-1.096,3.24-1.096
		c1.406,0,2.527,0.375,3.363,1.125s1.238,1.707,1.207,2.871l-0.035,0.07h-3.211c0-0.531-0.109-0.953-0.328-1.266
		s-0.555-0.469-1.008-0.469c-0.359,0-0.664,0.121-0.914,0.363s-0.375,0.535-0.375,0.879c0,0.375,0.125,0.678,0.375,0.908
		s0.793,0.545,1.629,0.943c1.328,0.453,2.312,0.99,2.953,1.611s0.961,1.436,0.961,2.443c0,1.078-0.43,1.961-1.289,2.648
		s-1.988,1.031-3.387,1.031c-1.461,0-2.617-0.426-3.469-1.277s-1.258-1.812-1.219-2.883l0.023-0.07h3.047
		c0.016,0.672,0.172,1.156,0.469,1.453s0.707,0.445,1.23,0.445c0.445,0,0.785-0.109,1.02-0.328S191.231,80.836,191.231,80.453z"/>
</g>
</svg>
