<?xml version="1.0" encoding="utf-8"?>
<!-- Generator: Adobe Illustrator 16.0.0, SVG Export Plug-In . SVG Version: 6.00 Build 0)  -->
<!DOCTYPE svg PUBLIC "-//W3C//DTD SVG 1.1//EN" "http://www.w3.org/Graphics/SVG/1.1/DTD/svg11.dtd">
<svg version="1.1" id="Layer_1" xmlns="http://www.w3.org/2000/svg" xmlns:xlink="http://www.w3.org/1999/xlink" x="0px" y="0px"
	 width="106px" height="102px" viewBox="0 0 106 102" enable-background="new 0 0 106 102" xml:space="preserve">
<g>
	<g>
		<path fill="#50C2C9" d="M22.145,39.436c0,0-0.604-4.959-5.905-4.744c0,0-0.866,1.466-4.134,2.075v0.297l1.181,0.593l-2.066,2.076
			l1.476,5.93l-1.476,2.965h-0.295l-1.477-2.965l1.477-5.93L9.153,37.36l0.886-0.296v-0.297c0,0-2.726-0.542-4.134-2.075
			c0,0-5.301-0.77-5.905,5.041v10.082h22.145V39.436z M11.495,55.068l-4.48-0.125C9.842,74.161,24.039,89.65,42.518,94.318v-4.334
			C26.478,85.438,14.21,71.863,11.495,55.068z M54.328,4.448c10.699,0,20.488,3.895,28.055,10.341l2.809-3.264
			C76.854,4.346,66.025,0,54.182,0C39.025,0,25.53,7.109,16.796,18.178l3.504,2.815C28.25,10.918,40.533,4.448,54.328,4.448z
			 M60.234,49.23c0,0-0.411-3.396-4.017-3.249c0,0-0.589,1.004-2.812,1.421v0.203l0.804,0.406l-1.406,1.421l1.002,4.061l-1.002,2.03
			h-0.201l-1.004-2.03l1.004-4.061l-1.205-1.625l0.603-0.203v-0.203c0,0-1.854-0.372-2.811-1.421c0,0-3.604-0.527-4.016,3.452v6.903
			h15.059V49.23H60.234z M11.22,36.174c3.75,0,6.791-3.054,6.791-6.82c0-3.767-3.041-6.82-6.791-6.82
			c-3.751,0-6.792,3.053-6.792,6.82C4.429,33.121,7.469,36.174,11.22,36.174z M96.8,39.028c0.608,2.907,0.933,5.918,0.933,9.006
			c0,17.748-10.566,33.006-25.724,39.805l2.058,3.569c16.404-7.571,27.801-24.205,27.801-43.523c0-3.068-0.299-6.064-0.85-8.972
			L96.8,39.028z M62.893,86.878c0,0-0.867,1.466-4.135,2.075v0.297l1.182,0.593l-2.066,2.075l1.477,5.932l-1.477,2.965h-0.296
			l-1.476-2.965l1.476-5.932l-1.771-2.371l0.885-0.297v-0.297c0,0-2.726-0.543-4.132-2.075c0,0-5.301-0.771-5.905,5.04V102h22.145
			V91.622C68.797,91.622,68.191,86.663,62.893,86.878z M100.096,19.57c0,0-0.867,1.466-4.135,2.075v0.297l1.182,0.593l-1.576,1.583
			c-0.637-1.115-1.325-2.193-2.043-3.252c0.5,0.118,1.018,0.186,1.553,0.186c3.751,0,6.791-3.054,6.791-6.82
			c0-3.767-3.04-6.82-6.791-6.82s-6.791,3.053-6.791,6.82c0,3.175,2.164,5.836,5.09,6.595c0.169,0.274,0.337,0.538,0.506,0.814
			c-0.145-0.029-2.751-0.582-4.119-2.072c0,0-5.301-0.77-5.904,5.041v10.082H106V24.314C106,24.314,105.396,19.355,100.096,19.57z
			 M95.075,33.506h-0.296l-1.477-2.965l1.477-5.93l-1.771-2.372l0.887-0.296v-0.277c0.52,0.85,1.037,1.71,1.551,2.575l-0.369,0.371
			l1.477,5.93L95.075,33.506z M57.872,74.721c-3.751,0-6.792,3.055-6.792,6.819c0,3.767,3.041,6.819,6.792,6.819
			c3.75,0,6.791-3.053,6.791-6.819S61.622,74.721,57.872,74.721z M53.147,64.046l2.953,5.041c1.037,0.853,2.066,0.297,2.066,0.297
			l5.314-2.075c1.688-0.531,1.182-2.076,1.182-2.076l-1.182-5.336c1.49-1.015,2.953-3.56,2.953-3.56l5.608-0.296
			c1.21,0.083,1.478-1.482,1.478-1.482l0.59-5.337c0.375-2.267-1.18-2.372-1.18-2.372l-5.316-1.779
			c-0.063-1.92-1.477-4.151-1.477-4.151l2.362-4.448c0.989-1.636-0.295-2.372-0.295-2.372l-4.429-3.558
			c-1.313-1.257-2.362-0.296-2.362-0.296l-4.134,3.854c-1.398-0.924-4.724-0.89-4.724-0.89l-2.953-4.744
			c-0.627-1.063-2.067-0.594-2.067-0.594L41.63,30.54c-0.728,0.314-0.591,1.186-0.591,1.186l1.181,5.93
			c-1.217,0.875-2.657,3.558-2.657,3.558l-5.905,0.297c-1.014,0.339-1.181,1.187-1.181,1.187l-0.59,5.337
			C31.5,50.41,33.069,51,33.069,51l5.02,1.482c0.038,2.153,1.772,4.15,1.772,4.15l-2.658,4.447c-0.932,1.22,0.295,2.372,0.295,2.372
			l4.724,3.854c1.693,0.996,2.362,0,2.362,0l3.838-3.854C51.585,64.584,53.147,64.046,53.147,64.046z M41.042,48.479
			c0-6.632,5.354-12.009,11.958-12.009c6.604,0,11.958,5.376,11.958,12.009c0,6.632-5.354,12.009-11.958,12.009
			C46.396,60.488,41.042,55.111,41.042,48.479z M52.805,46.997c2.55,0,4.618-2.091,4.618-4.67s-2.067-4.67-4.618-4.67
			c-2.551,0-4.618,2.091-4.618,4.67S50.254,46.997,52.805,46.997z"/>
	</g>
</g>
</svg>
