<?xml version="1.0" encoding="utf-8"?>
<!-- Generator: Adobe Illustrator 16.0.0, SVG Export Plug-In . SVG Version: 6.00 Build 0)  -->
<!DOCTYPE svg PUBLIC "-//W3C//DTD SVG 1.1//EN" "http://www.w3.org/Graphics/SVG/1.1/DTD/svg11.dtd">
<svg version="1.1" id="Layer_1" xmlns="http://www.w3.org/2000/svg" xmlns:xlink="http://www.w3.org/1999/xlink" x="0px" y="0px"
	 width="96px" height="96px" viewBox="0 0 96 96" enable-background="new 0 0 96 96" xml:space="preserve">
<g>
	<g>
		<g>
			<path fill-rule="evenodd" clip-rule="evenodd" fill="#50C2C9" d="M48,0C21.49,0,0,21.49,0,48s21.49,48,48,48s48-21.49,48-48
				S74.51,0,48,0z M48,90C24.804,90,6,71.195,6,48C6,24.804,24.804,6,48,6c23.195,0,42,18.804,42,42C90,71.195,71.195,90,48,90z
				 M72,45H55.252l11.869-11.869c1.174-1.174,1.174-3.078,0-4.252c-1.174-1.175-3.078-1.175-4.253,0L51,40.747V24
				c0-1.657-1.344-3-3-3s-3,1.343-3,3v16.757L33.151,28.908c-1.172-1.171-3.071-1.171-4.243,0c-1.172,1.172-1.172,3.071,0,4.243
				L40.758,45H24c-1.657,0-3,1.343-3,3c0,1.656,1.343,3,3,3h16.747L28.848,62.899c-1.174,1.175-1.174,3.079,0,4.253
				s3.078,1.174,4.252,0l11.9-11.9V72c0,1.656,1.344,3,3,3s3-1.344,3-3V55.242l11.85,11.85c1.172,1.172,3.07,1.172,4.242,0
				s1.172-3.07,0-4.242L55.242,51H72c1.656,0,3-1.344,3-3C75,46.343,73.656,45,72,45z"/>
		</g>
	</g>
</g>
</svg>
