<?xml version="1.0" encoding="utf-8"?>
<!-- Generator: Adobe Illustrator 16.0.0, SVG Export Plug-In . SVG Version: 6.00 Build 0)  -->
<!DOCTYPE svg PUBLIC "-//W3C//DTD SVG 1.1//EN" "http://www.w3.org/Graphics/SVG/1.1/DTD/svg11.dtd">
<svg version="1.1" id="Layer_1" xmlns="http://www.w3.org/2000/svg" xmlns:xlink="http://www.w3.org/1999/xlink" x="0px" y="0px"
	 width="107px" height="91px" viewBox="0 0 107 91" enable-background="new 0 0 107 91" xml:space="preserve">
<g>
	<g>
		<path fill="#50C2C9" d="M99.035,7.856C94.161,3.068,87.139,0,79.749,0c-4.351,0-8.438,0.988-12.367,2.966
			c-3.932,1.977-7.128,4.682-9.644,8.116c-2.516-3.434-5.712-6.139-9.643-8.116C44.165,0.987,40.077,0,35.728,0
			c-7.389,0-14.412,3.069-19.286,7.856c-4.874,4.786-7.966,11.758-7.966,19.095c0,2.767,0.332,5.481,0.844,7.984l5.623-1.124
			c-0.512-2.173-0.701-4.421-0.701-6.86c0-5.828,2.097-10.822,6.289-14.933c4.245-4.162,9.276-6.243,15.197-6.243
			c4.14,0,7.966,1.092,11.478,3.33c3.511,2.236,6.218,5.186,7.966,8.896c0.506,1.077,1.362,1.613,2.566,1.613
			c1.207,0,2.138-0.499,2.675-1.613c1.771-3.675,4.298-6.66,7.81-8.896c3.51-2.238,7.389-3.33,11.527-3.33
			c5.923,0,10.953,2.081,15.146,6.191c4.191,4.11,6.287,9.105,6.287,14.985c-0.002,1.82-0.172,3.587-0.474,5.307
			c-1.01,5.772-4.047,11.435-9.118,17.014c-2.214,2.435-6.277,6.31-12.212,11.551c-3.079,2.72-5.554,4.943-7.493,6.712
			c-1.887,1.719-4.205,4.045-6.971,6.972c-2.738,2.901-5.137,5.775-7.18,8.585c-2.148-2.757-4.625-5.555-7.441-8.429
			c-1.52-1.551-2.847-2.893-4.006-4.036l-5.146,3.087c0.793,0.747,1.662,1.57,2.652,2.512c4.77,4.524,8.27,8.694,11.581,13.475
			C55.998,90.591,56.795,91,57.736,91c0.996,0,1.859-0.4,2.464-1.302c2.12-3.157,4.573-6.388,7.44-9.573
			c2.896-3.215,5.308-5.709,7.232-7.492c1.952-1.807,4.759-4.328,8.386-7.544c2.242-1.987,4.035-3.485,5.241-4.578
			c1.205-1.094,2.777-2.602,4.717-4.526c1.938-1.926,3.473-3.58,4.561-4.943c1.113-1.395,2.289-3.08,3.615-5.098
			c2.709-4.122,3.896-7.385,4.873-11.967c0.487-2.287,0.733-4.631,0.733-7.024C107.001,19.614,103.908,12.642,99.035,7.856z
			 M45.039,45.816h16.329c0.696,0,1.327-0.275,1.798-0.717c1.587,4.543,5.902,7.808,10.993,7.808
			c6.437,0,11.653-5.212,11.653-11.639c0-6.428-5.217-11.64-11.653-11.64c-6.3,0-11.419,4.997-11.634,11.238
			c-0.351-0.173-0.739-0.279-1.157-0.279H46.826l-4.449-11.184c-0.432-1.089-1.525-1.75-2.717-1.639
			c-1.169,0.123-2.12,1.005-2.318,2.159l-4.197,24.382l-4.575-24.96c-0.224-1.232-1.294-1.832-2.553-1.832h-0.034
			c-1.246,0-2.323,0.551-2.576,1.765l-3.49,16.616l-2.298-3.947c-0.472-0.796-1.335-1.363-2.263-1.363H2.645
			c-1.451,0-2.629,1.172-2.629,2.612c0,1.443,1.178,2.617,2.629,2.617h11.208l4.997,8.397c0.552,0.929,1.612,1.433,2.694,1.25
			c1.071-0.178,1.923-0.992,2.142-2.048L25.8,43.259l4.818,26.583c0.226,1.245,1.315,2.11,2.589,2.11h0.011
			c1.277,0,2.365-0.882,2.58-2.13l5.143-29.841l1.655,4.168C42.989,45.151,43.959,45.816,45.039,45.816z M79.416,41.98h4.092v2.257
			h-4.092V41.98z M76.718,36.353h2.507l-3.947,10.872h-2.506L76.718,36.353z M64.975,40.888h2.694v-2.655h1.948v2.655h2.693v1.938
			h-2.693v3.611h-1.948v-3.611h-2.694V40.888z"/>
	</g>
</g>
</svg>
