<?xml version="1.0" encoding="utf-8"?>
<!-- Generator: Adobe Illustrator 16.0.0, SVG Export Plug-In . SVG Version: 6.00 Build 0)  -->
<!DOCTYPE svg PUBLIC "-//W3C//DTD SVG 1.1//EN" "http://www.w3.org/Graphics/SVG/1.1/DTD/svg11.dtd">
<svg version="1.1" id="Layer_1" xmlns="http://www.w3.org/2000/svg" xmlns:xlink="http://www.w3.org/1999/xlink" x="0px" y="0px"
	 width="59px" height="65px" viewBox="0 0 59 65" enable-background="new 0 0 59 65" xml:space="preserve">
<g>
	<g>
		<path fill="#50C2C9" d="M16.479,34.175l-1.214,2.134c-0.6,1.059-0.328,2.386,0.641,3.129l2.873,2.205
			c1.022,0.786,2.486,0.664,3.361-0.28l1.687-1.821l2.429,2.022c0.503,0.42,1.155,0.628,1.811,0.57
			c0.658-0.055,1.264-0.369,1.691-0.865l4.627-5.391c-1.455-1.055-2.621-2.463-3.357-4.103c-0.576-1.27-0.896-2.676-0.896-4.155
			c0-5.647,4.662-10.241,10.393-10.241c1.17,0,2.297,0.193,3.348,0.547c1.473,0.498,2.797,1.311,3.893,2.357l5.836-6.803
			c0.887-1.032,0.756-2.578-0.293-3.45l-1.191-0.992l0.613-0.656c0.457-0.492,0.688-1.145,0.645-1.811
			c-0.043-0.664-0.359-1.284-0.875-1.713l-5.154-4.292c-0.516-0.431-1.188-0.634-1.857-0.564c-0.672,0.067-1.287,0.402-1.701,0.924
			l-0.563,0.711l-1.184-0.986c-1.049-0.872-2.617-0.742-3.5,0.291l-24.023,28c-0.814,0.949-0.777,2.345,0.085,3.253L16.479,34.175z
			 M50.619,30.044c-0.598,2.406-2.055,4.482-4.031,5.889c2.801,3.503,5.467,8.605,5.467,15.391v6.831H17.288v-0.431l11.436-4.123
			v-2.1c0-1.353-1.113-2.448-2.485-2.448H2.48c-1.373,0-2.484,1.096-2.484,2.448v2.1l10.337,3.734v2.878
			c0,2.651,2.18,4.799,4.868,4.799h38.938c2.689,0,4.865-2.147,4.865-4.798v-8.89C59.008,41.524,54.674,34.49,50.619,30.044z
			 M40.52,19.667c-4.453,0-8.076,3.571-8.076,7.959c0,4.389,3.623,7.959,8.076,7.959c4.455,0,8.078-3.57,8.078-7.959
			C48.598,23.235,44.975,19.667,40.52,19.667z"/>
	</g>
</g>
</svg>
