<?xml version="1.0" encoding="utf-8"?>
<!-- Generator: Adobe Illustrator 16.0.0, SVG Export Plug-In . SVG Version: 6.00 Build 0)  -->
<!DOCTYPE svg PUBLIC "-//W3C//DTD SVG 1.1//EN" "http://www.w3.org/Graphics/SVG/1.1/DTD/svg11.dtd">
<svg version="1.1" id="Layer_1" xmlns="http://www.w3.org/2000/svg" xmlns:xlink="http://www.w3.org/1999/xlink" x="0px" y="0px"
	 width="131px" height="131px" viewBox="0 0 131 131" enable-background="new 0 0 131 131" xml:space="preserve">
<g>
	<g>
		<path fill="#50C2C9" d="M65.5,0C29.325,0,0,29.326,0,65.5C0,101.675,29.325,131,65.5,131S131,101.675,131,65.5
			C131,29.326,101.675,0,65.5,0z M41.743,61.607l26.059-30.585c0.957-1.127,2.659-1.27,3.795-0.317l1.284,1.076l0.61-0.777
			c0.45-0.571,1.116-0.937,1.846-1.01c0.727-0.075,1.456,0.146,2.016,0.617l5.592,4.688c0.559,0.468,0.901,1.145,0.948,1.871
			c0.047,0.729-0.203,1.441-0.7,1.978l-0.664,0.717l1.293,1.083c1.136,0.952,1.279,2.641,0.317,3.768l-6.33,7.431
			c-1.19-1.143-2.626-2.031-4.223-2.575c-1.142-0.386-2.362-0.597-3.633-0.597c-6.216,0-11.273,5.018-11.273,11.186
			c0,1.616,0.349,3.152,0.973,4.539c0.798,1.791,2.064,3.33,3.641,4.481l-5.019,5.889c-0.463,0.541-1.121,0.886-1.834,0.945
			c-0.711,0.063-1.418-0.164-1.964-0.623l-2.635-2.209l-1.83,1.989c-0.948,1.032-2.537,1.164-3.646,0.306l-3.116-2.408
			c-1.051-0.813-1.347-2.262-0.696-3.418l1.317-2.331l-2.038-2.161C40.9,64.169,40.859,62.644,41.743,61.607z M78.712,60.169
			c0,4.794-3.93,8.694-8.761,8.694c-4.832,0-8.762-3.9-8.762-8.694c0-4.794,3.93-8.693,8.762-8.693
			C74.782,51.476,78.712,55.373,78.712,60.169z M90.001,95.766c0,2.895-2.359,5.24-5.278,5.24H42.485
			c-2.917,0-5.281-2.346-5.281-5.242v-3.143l-11.213-4.08v-2.292c0-1.479,1.206-2.675,2.695-2.675h25.772
			c1.487,0,2.695,1.196,2.695,2.675v2.292l-12.405,4.504v0.471h37.714v-7.462c0-7.412-2.892-12.984-5.932-16.811
			c2.146-1.536,3.727-3.805,4.373-6.433c4.399,4.856,9.102,12.54,9.097,23.245V95.766z"/>
	</g>
</g>
</svg>
