<?xml version="1.0" encoding="utf-8"?>
<!-- Generator: Adobe Illustrator 16.0.0, SVG Export Plug-In . SVG Version: 6.00 Build 0)  -->
<!DOCTYPE svg PUBLIC "-//W3C//DTD SVG 1.1//EN" "http://www.w3.org/Graphics/SVG/1.1/DTD/svg11.dtd">
<svg version="1.1" id="Layer_1" xmlns="http://www.w3.org/2000/svg" xmlns:xlink="http://www.w3.org/1999/xlink" x="0px" y="0px"
	 width="51px" height="75px" viewBox="0 0 51 75" enable-background="new 0 0 51 75" xml:space="preserve">
<g>
	<g>
		<path fill-rule="evenodd" clip-rule="evenodd" fill="#50C2C9" d="M31.038,51.506c0,0-2.882,3.422-6.346,0
			c-3.362-3.219-5.44-0.904-5.44-0.904l-8.16,15.363c-0.431,0.758-0.737,1.576,0,1.807l28.866,0.066
			c0.868-0.23,1.287-1.016,1.054-1.873L31.038,51.506z M50.775,67.699L31.038,38.855L30.933,18.97c0,0,4.639-1.168,4.639-3.608
			c0-1.068-1.866-1.812-3.626-1.808H16.532c-1.808,0-3.626,0.54-3.626,1.808c0,2.068,4.533,3.614,4.533,3.614v19.879L0.212,67.771
			c-0.936,3.449,1.333,6.299,4.825,7.225h41.109C49.639,74.07,51.711,71.148,50.775,67.699z M45.545,72.289H5.652
			c-2.269-0.602-3.328-2.275-2.72-4.518l16.32-28.916V18.976c0,0-1.866-0.612-2.72-1.807c-0.337-0.473,0.319-0.904,0.907-0.904h13.6
			c0.588,0,0.907,0.324,0.907,0.904c0,1.086-2.72,1.807-2.72,1.807v19.879l19.04,28.916C48.873,70.012,47.814,71.689,45.545,72.289z
			 M30.271,8.93c-0.935,0-1.692,0.749-1.692,1.671c0,0.923,0.758,1.672,1.692,1.672c0.936,0,1.692-0.749,1.692-1.672
			C31.963,9.678,31.206,8.93,30.271,8.93z M28.561,6.153c1.72,0,3.112-1.375,3.112-3.074s-1.393-3.075-3.112-3.075
			c-1.719,0-3.113,1.376-3.113,3.075S26.842,6.153,28.561,6.153z M19.136,12.218c1.868,0,3.384-1.498,3.384-3.343
			c0-1.845-1.516-3.342-3.384-3.342c-1.87,0-3.385,1.497-3.385,3.342C15.751,10.721,17.266,12.218,19.136,12.218z"/>
	</g>
</g>
</svg>
