<?xml version="1.0" encoding="utf-8"?>
<!-- Generator: Adobe Illustrator 16.0.0, SVG Export Plug-In . SVG Version: 6.00 Build 0)  -->
<!DOCTYPE svg PUBLIC "-//W3C//DTD SVG 1.1//EN" "http://www.w3.org/Graphics/SVG/1.1/DTD/svg11.dtd">
<svg version="1.1" id="Layer_1" xmlns="http://www.w3.org/2000/svg" xmlns:xlink="http://www.w3.org/1999/xlink" x="0px" y="0px"
	 width="96px" height="96px" viewBox="0 0 96 96" enable-background="new 0 0 96 96" xml:space="preserve">
<g>
	<g>
		<path fill-rule="evenodd" clip-rule="evenodd" fill="#50C2C9" d="M74.692,64.7C73.675,60.846,70.174,58,66,58
			c-3.532,0-6.58,2.039-8.054,5H24c-1.657,0-3,1.344-3,3s1.343,3,3,3h33.23c0.91,4.007,4.487,7,8.77,7c4.971,0,9-4.029,9-9
			c0-0.225-0.018-0.445-0.033-0.666C74.979,66.223,75,66.114,75,66C75,65.532,74.884,65.095,74.692,64.7z M66,70
			c-1.656,0-3-1.344-3-3s1.344-3,3-3s3,1.344,3,3S67.656,70,66,70z M72,45H49.477c-1.236-3.493-4.56-6-8.477-6s-7.24,2.507-8.477,6
			H24c-1.657,0-3,1.344-3,3s1.343,3,3,3h8.523c1.237,3.493,4.56,6,8.477,6s7.24-2.507,8.477-6H72c1.656,0,3-1.344,3-3
			S73.656,45,72,45z M41,51c-1.657,0-3-1.344-3-3s1.343-3,3-3s3,1.344,3,3S42.657,51,41,51z M48,0C21.49,0,0,21.49,0,48
			s21.49,48,48,48s48-21.49,48-48S74.51,0,48,0z M48,90C24.804,90,6,71.195,6,48C6,24.804,24.804,6,48,6c23.195,0,42,18.804,42,42
			C90,71.195,71.195,90,48,90z M72,27h-5.523c-1.236-3.493-4.56-6-8.477-6s-7.24,2.507-8.477,6H24c-1.657,0-3,1.343-3,3s1.343,3,3,3
			h25.523c1.236,3.493,4.56,6,8.477,6s7.24-2.507,8.477-6H72c1.656,0,3-1.343,3-3S73.656,27,72,27z M58,33c-1.656,0-3-1.343-3-3
			s1.344-3,3-3s3,1.343,3,3S59.656,33,58,33z"/>
	</g>
</g>
</svg>
