<?xml version="1.0" encoding="utf-8"?>
<!-- Generator: Adobe Illustrator 16.0.0, SVG Export Plug-In . SVG Version: 6.00 Build 0)  -->
<!DOCTYPE svg PUBLIC "-//W3C//DTD SVG 1.1//EN" "http://www.w3.org/Graphics/SVG/1.1/DTD/svg11.dtd">
<svg version="1.1" id="Layer_1" xmlns="http://www.w3.org/2000/svg" xmlns:xlink="http://www.w3.org/1999/xlink" x="0px" y="0px"
	 width="600px" height="600px" viewBox="0 0 600 600" enable-background="new 0 0 600 600" xml:space="preserve">
<path fill="#0054A6" d="M302.74,377.15"/>
<g>
	<path fill="#0054A6" d="M167.457,275.914H134.39c-4.469,0-8.098-3.624-8.098-8.098s3.629-8.098,8.098-8.098h33.067
		c4.469,0,8.098,3.624,8.098,8.098S171.926,275.914,167.457,275.914z"/>
	<path fill="#0054A6" d="M438.023,265.713h33.066c4.469,0,8.099-3.624,8.099-8.098c0-4.473-3.63-8.097-8.099-8.097h-33.066
		c-4.47,0-8.099,3.624-8.099,8.097C429.926,262.089,433.555,265.713,438.023,265.713z"/>
	<path fill="#0054A6" d="M185.942,196.704c-1.377,0-2.77-0.351-4.042-1.09l-28.632-16.531c-3.869-2.232-5.198-7.186-2.961-11.059
		c2.242-3.878,7.195-5.189,11.059-2.961l28.627,16.531c3.869,2.232,5.198,7.187,2.961,11.059
		C191.452,195.25,188.735,196.704,185.942,196.704z"/>
	<path fill="#0054A6" d="M236.471,146.184c-2.793,0-5.515-1.455-7.013-4.046l-16.531-28.632c-2.237-3.874-0.907-8.827,2.962-11.059
		c3.864-2.232,8.817-0.912,11.059,2.962l16.531,28.627c2.232,3.874,0.907,8.827-2.961,11.059
		C239.241,145.833,237.849,146.184,236.471,146.184z"/>
	<path fill="#0054A6" d="M305.48,127.689c-4.469,0-8.098-3.624-8.098-8.098V86.534c0-4.469,3.628-8.098,8.098-8.098
		s8.098,3.624,8.098,8.098v33.058C313.578,124.065,309.95,127.689,305.48,127.689z"/>
	<path fill="#0054A6" d="M374.486,146.188c-1.378,0-2.771-0.35-4.042-1.089c-3.869-2.237-5.198-7.19-2.962-11.059l16.53-28.632
		c2.242-3.874,7.195-5.189,11.061-2.962c3.868,2.232,5.198,7.186,2.961,11.059l-16.531,28.632
		C380.001,144.734,377.279,146.188,374.486,146.188z"/>
	<path fill="#0054A6" d="M425.021,196.713c-2.795,0-5.517-1.454-7.019-4.051c-2.237-3.874-0.907-8.822,2.961-11.059l28.633-16.531
		c3.858-2.232,8.817-0.912,11.06,2.962c2.231,3.874,0.906,8.822-2.962,11.059l-28.627,16.531
		C427.79,196.358,426.397,196.713,425.021,196.713z"/>
	<path fill="#0054A6" d="M453.638,351.27c-1.378,0-2.77-0.352-4.042-1.09l-28.632-16.531c-3.868-2.231-5.198-7.186-2.961-11.06
		c2.241-3.868,7.195-5.198,11.06-2.962l28.628,16.531c3.867,2.236,5.197,7.186,2.961,11.06
		C459.153,349.814,456.432,351.27,453.638,351.27z"/>
	<path fill="#0054A6" d="M157.324,351.254c-2.793,0-5.515-1.454-7.018-4.051c-2.237-3.873-0.907-8.822,2.961-11.059l28.632-16.531
		c3.864-2.242,8.817-0.912,11.059,2.961c2.232,3.873,0.907,8.822-2.961,11.06l-28.627,16.53
		C160.089,350.908,158.697,351.254,157.324,351.254z"/>
</g>
<g>
	<path fill="#0054A6" d="M232.775,391.416"/>
	<path fill="#0054A6" d="M331.603,395.625l-57.974-0.01c-15.562-0.656-19.464-15.205-21.336-22.199
		c-2.568-9.293-6.389-23.104-19.723-38.078c-29.553-33.255-38.131-80.698-21.355-118.08c15.331-34.162,48.696-53.755,91.526-53.755
		s76.194,19.593,91.531,53.75c16.775,37.377,8.197,84.825-21.352,118.069c-13.334,14.977-17.155,28.781-19.685,37.921
		c-1.92,7.157-5.817,21.71-21.385,22.368L331.603,395.625z M276.758,371.625h51.965c0.461-1.339,0.95-3.168,1.286-4.425
		c2.837-10.259,7.939-28.685,24.984-47.823c23.366-26.294,30.36-63.383,17.386-92.289c-11.295-25.152-36.677-39.581-69.639-39.581
		c-32.961,0-58.344,14.424-69.634,39.581c-12.974,28.901-5.985,65.995,17.391,92.299c17.045,19.139,22.143,37.574,24.883,47.482
		C275.798,368.419,276.297,370.286,276.758,371.625z"/>
	<path fill="#0054A6" d="M335.716,428.904h-62.188c-6.629,0-12-5.371-12-12s5.371-12,12-12h62.188c6.629,0,12,5.371,12,12
		S342.34,428.904,335.716,428.904z"/>
	<path fill="#0054A6" d="M333.139,460.133H276.1c-6.628,0-12-5.371-12-12s5.372-12,12-12h57.034c6.629,0,12,5.371,12,12
		S339.763,460.133,333.139,460.133z"/>
	<path fill="#0054A6" d="M338.021,475.373c0,8.088-13.346,18.283-32.16,18.859c-0.434,0.048-0.815,0.048-1.248,0.048
		c-0.434,0-0.864,0-1.248-0.048c-18.768-0.576-32.112-13.13-32.112-18.859c0-6.624,5.328-7.411,12-7.411h42.769
		C332.645,467.962,338.021,468.749,338.021,475.373z"/>
</g>
</svg>
